<?xml version="1.0" encoding="UTF-8"?><svg id="Capa_1" xmlns="http://www.w3.org/2000/svg" viewBox="0 0 617.75 455.44"><defs><style>.cls-1{fill:#fafafa;}.cls-2{fill:#020202;}</style></defs><path class="cls-2" d="M127.29,0h50.67c0,22.87,0,45.45,0,68.03s0,45.22,0,67.88c19.7,2.95,38.33,7.73,55.46,16.94,46.32,24.9,75.43,63.09,84.33,115.09,8.71,50.91-4.27,96.7-39,135.04-33.78,37.3-76.72,54.53-126.96,52.26-41.26-1.87-76.74-17.81-105.68-47.33C11.32,372.43-3,329.18,.52,280.01c2.1-29.44,13.31-55.75,30.59-79.48,22.89-31.45,53.41-51.56,91.14-60.63,4.43-1.06,5.67-2.98,5.64-7.46-.34-41.98-.43-83.96-.59-125.94,0-1.98,0-3.96,0-6.51Zm50.69,197.96c5.71,.85,10.84,2.15,15.78,4.03,48.56,18.44,76.06,72.05,58.46,124.12-15.5,45.87-56.45,71.43-104.12,67.23-41.73-3.68-76.77-34.28-86.53-75.57-11.52-48.7,14.96-98.85,61.21-115.89,5.42-2,6.08-3.63,3.68-9.97-6.11,2.55-12.23,5.03-18.3,7.66-3,1.3-4.46,.79-5.15-2.71-1.13-5.76-1.9-11.53-1.6-17.37,.28-5.57,.95-11.11,2.67-16.83,5.21,2.4,8.91,5.74,12.51,9.11,3.57,3.34,6.74,7.1,10.25,10.86,2.76-10.47,1.36-13.63-6.4-19.55-3.66-2.79-8.16-4.82-11.14-9.47,5.35-1.31,10.15-2.48,14.95-3.65,2.55-.62,4.32-1.65,2.56-4.64C53.03,160.93,1,231.42,6.58,305.4c5.6,74.16,60.75,133.51,134.95,142.64,71.68,8.82,140.32-33.33,163.98-102.78,25.35-74.43-8.43-147.67-67.77-182.71-18.33-10.82-38.18-17.22-59.31-19.84-.52,2.1-.75,3.53,.27,5.07,7.51,1.3,15.13,2.61,23.82,4.11-7.79,6.65-14.8,12.64-21.82,18.62-1.25,1.07-2.75,1.87-2.74,3.88,.04,7.8,.02,15.61,.02,23.57Zm-51.01,9.71c-35.4,10.79-68.19,51.41-60.56,101.66,7.15,47.06,51.3,82.15,98.14,78,51.36-4.55,87.42-44.69,86.25-96.29-1.11-49.44-42.3-82.75-73.03-86.13,1.33,3.17-2.27,7.35,2.14,9.32,6.78,3.02,13.11,6.62,19.08,11.04,7.56,5.6,15.18,11.18,20.89,18.7,15.36,20.21,19.63,43.25,14.32,67.59-10.2,46.78-54.27,74.22-101.25,64.08-3.64-.78-4.95-1.94-4.93-5.77,.1-15.49-.22-30.98-.24-46.47-.04-36.82,.01-73.65-.01-110.47,0-1.76,.55-3.68-.81-5.26ZM162.86,26.58c.03-6.16-4.5-10.69-10.65-10.65-5.83,.04-10.32,4.54-10.39,10.42-.07,6.04,4.62,10.76,10.66,10.73,5.77-.03,10.36-4.66,10.38-10.5Zm-41.66,160.36c-3.75-5.26-7.38-9.68-12.83-13.08-.53,6.29-.87,11.83,.39,17.57,4.34-.64,7.92-2.58,12.45-4.49Zm57.24-32.71c-.8,3.29,.65,5.15,2.56,7.47,1.9-2.1,4.4-3.08,5.88-5.91-2.97-.55-5.5-1.02-8.44-1.57Z"/><path class="cls-2" d="M370.11,333.65c0-6.06,0-12.12,0-18.18,0-9.83,.34-19.68-.12-29.49-.5-10.65,3.4-14.26,15.28-11.98,1.06,1.64,.53,3.53,.53,5.29,.04,30.83,.04,61.67,0,92.5-.01,9.73-7.42,14.72-16.59,11.27-2.14-.8-2.12-2.78-2.58-4.5-5.71-21.36-11.41-42.72-17.13-64.08-.59-2.19-1.26-4.36-2.66-6.44v73.98c-3.27,1.49-6.36,1.14-9.2,.7-4.62-.7-6.53-3.89-6.5-8.58,.08-17.17,.02-34.33,.02-51.5,0-14.5,.09-29-.05-43.5-.04-4.11,1.06-6.3,5.62-5.88,2.46,.22,4.99-.09,7.47-.32,9.14-.85,8.29-.98,10.6,7.62,4.24,15.73,8.27,31.52,12.41,47.28,.53,2.01,1.17,3.98,1.76,5.97l1.12-.17Z"/><path class="cls-2" d="M371.05,198.04c15.06,8.13,12.47,21.97,11.98,34.45-.64,16.4-8.62,23.36-25.06,23.9-6.14,.2-12.29,.4-18.43,.39-6.54-.01-9.62-2.94-9.63-9.34-.04-30.47-.02-60.94,.06-91.41,.02-6.29,2.9-9.06,9.16-9.21,7.98-.2,15.96,.02,23.91,.75,10.23,.94,16.31,6.79,17.82,16.97,.84,5.62,.98,11.22,.37,16.9-.74,6.87-3.26,12.49-10.17,16.61Zm-23.3,9.95v32.12c.92,.18,1.41,.34,1.89,.35,2.49,.03,4.99,.08,7.48,.02,5.62-.13,7.87-2.04,8.3-7.74,.35-4.63,.33-9.32,.15-13.96-.35-8.7-3.54-11.61-12.12-11.36-1.8,.05-3.59,.35-5.69,.57Zm-.39-44.19c0,8.22,0,16.49,0,24.75,0,1.01,.19,1.9,1.27,2.46,5.99,3.08,14.34-1.36,15.03-8.08,.18-1.81,.12-3.64,.12-5.47,0-13.83-1.4-15.14-15.12-14.2-.16,.01-.31,.12-1.3,.54Z"/><path class="cls-2" d="M522.57,338.74c0,13.43-.19,26.57,.1,39.69,.1,4.46-1.22,5.67-5.61,5.53-10.39-.32-12.36-1.98-12.37-12.19-.02-29.8,0-59.61,.01-89.41,0-7.9,2.48-10.33,10.48-10.34,6.81,0,13.63-.06,20.44,.03,11.58,.16,18.73,6.02,20.89,17.33,1.74,9.09,1.44,18.2-.37,27.27-1.08,5.39-4.9,8.82-9.25,12.47,9.95,6.24,10.73,15.89,10.61,25.95-.12,9.44-.27,18.9,1.25,28.73-4.65,0-8.79,.27-12.87-.07-4.14-.34-5.98-3.19-6.06-7.21-.15-7.82-.31-15.64-.39-23.46-.12-12.36-3.8-15.67-16.86-14.32Zm0-17.04c4.1,.72,7.54,.48,10.91-.44,2.54-.69,4.51-2.2,4.99-5,1.27-7.43,1.76-14.9,.04-22.29-1.15-4.94-10.84-8.28-14.94-5.4-.94,.66-1,1.67-1,2.67,0,9.98,0,19.96,0,30.47Z"/><path class="cls-2" d="M548.43,202.99c8.51,5.11,10.54,12.53,10.41,20.94-.16,10.61,.11,21.21,1.26,32.33-4.78,0-9.06,.25-13.29-.08-3.31-.26-4.75-2.71-4.84-5.93-.26-9.15-.37-18.31-.81-27.45-.4-8.29-6.21-12.44-14.36-10.68-2.74,.59-2.03,2.68-2.04,4.34-.06,11.66-.19,23.32,.06,34.97,.09,4-1.11,5.12-5.07,5.04-10.57-.2-12.43-1.89-12.43-12.56,0-28.31,0-56.63,.02-84.94,0-9.58,2.17-11.78,11.66-11.82,5.82-.02,11.64-.1,17.46-.01,13.76,.2,21.37,7.27,22.14,20.93,.35,6.14,.21,12.32-.08,18.47-.33,6.9-3.55,12.35-10.09,16.44Zm-23.35-39.27c0,9.97,0,20.08,0,30.19,0,.89,.43,1.51,1.28,1.93,5.84,2.87,13.99-1.59,14.51-8.12,.3-3.81,.28-7.65,.29-11.48,.02-12.13-1.88-13.88-14.02-13.07-.48,.03-.95,.24-2.07,.55Z"/><path class="cls-2" d="M467.16,212.72c-1.02,4.01-.38,8.17-.43,12.27-.11,9-.19,18,.04,26.99,.09,3.57-1.15,4.85-4.57,4.47-1.48-.16-2.99,.03-4.49-.03-5.58-.24-8.24-2.76-8.29-8.41-.12-14.33-.08-28.66-.08-42.99,0-15.99-.03-31.99,.02-47.98,.03-7.38,2.59-9.85,9.92-9.88,6.49-.02,12.97-.11,19.46-.02,12.7,.19,20.1,6.8,21.65,19.41,.86,6.97,.7,13.98-.13,20.94-.76,6.44-3.49,11.78-10.07,15.32,10.78,6.37,10.77,16.63,10.71,26.87-.06,8.64,.12,17.28,1.07,26.45-4.88,0-9.3,.31-13.67-.1-3.28-.3-4.53-2.85-4.59-6.11-.13-8.16-.41-16.32-.61-24.48-.29-11.44-3.97-14.43-15.95-12.73Zm-.18-16.89c3.61,.28,6.56,.38,9.52-.18,3.27-.62,5.54-2.41,5.99-5.75,.94-6.92,1.11-13.89,.12-20.82-.47-3.3-2.33-5.59-5.79-5.83-3.23-.23-6.49-.05-9.85-.05v32.64Z"/><path class="cls-2" d="M617.39,328.25c0,9.81,.06,19.63-.01,29.44-.15,22.46-20.9,34.44-40.68,23.42-8.68-4.83-11.48-13.03-11.56-22.3-.18-19.97-.13-39.93-.09-59.9,0-2.3,.53-4.61,.89-6.91,1.67-10.84,8.09-17.01,18.67-19.34,14.06-3.09,26.52,2.77,31.18,14.85,1.09,2.84,1.51,5.79,1.52,8.8,.02,10.65,0,21.29,0,31.94h.08Zm-17.52-.08h.1c0-9.83,.08-19.66-.03-29.49-.07-7.01-2.94-10.32-8.68-10.44-5.42-.11-8.49,3.48-8.65,10.5-.14,6.66-.07,13.33-.06,19.99,.02,13.33-.08,26.65,.14,39.98,.12,7.48,4.91,11.24,11.3,9.33,4.67-1.4,5.81-5.15,5.85-9.38,.09-10.16,.03-20.32,.03-30.48Z"/><path class="cls-2" d="M617.74,201.55c0,9.83-.03,19.66,0,29.48,.06,13.01-4.98,21.94-15.41,25.31-12.82,4.14-30.77,1.4-35.25-14.09-1.11-3.83-1.77-7.77-1.77-11.8,0-18-.01-36,.03-53.99,0-3.32,.21-6.62,.71-9.94,2.48-16.47,13.82-21.19,26.87-20.88,15.15,.36,24.09,9.3,24.62,23.93,.38,10.64,.08,21.31,.08,31.97h.11Zm-17.4,.93c0-9.31,.04-18.62-.03-27.93-.02-2.14-.22-4.32-.64-6.42-.83-4.12-3.45-6.41-7.69-6.38-4.21,.03-7.3,1.64-8.32,6.24-.58,2.62-.93,5.23-.93,7.89,0,17.62,0,35.24,0,52.86,0,2.66,.15,5.29,1.08,7.85,1.37,3.81,4.06,5.49,7.98,5.43,5.3-.07,8.44-3.67,8.51-10.14,.1-9.81,.03-19.62,.04-29.42Z"/><path class="cls-2" d="M474.12,337.95c-.37-.62-.51-.76-.52-.9-.73-17.9-1.1-14.82,13.46-14.96,10.48-.1,10.63,.04,10.46,10.37-.18,10.8,.9,21.64-.77,32.41-1.75,11.37-9.37,18.48-20.79,19.28-20.47,1.43-29.66-7.21-30.02-27.53-.33-18.65-.09-37.31-.08-55.97,0-4.86,.92-9.6,2.38-14.22,1.02-3.24,2.82-6.08,5.42-8.24,8.66-7.22,18.62-7.53,28.72-4.4,9.25,2.86,13.6,10.03,14.71,19.44,.67,5.63,.55,11.24,.6,16.97-1.18,.14-1.99,.34-2.8,.33-10.79-.23-14.76,2.49-14.03-12.31,.33-6.64-2.87-9.81-8.03-9.98-4.22-.14-7.5,1.43-8.51,5.99-.32,1.45-.7,2.94-.71,4.42-.03,19.82-.08,39.64,.08,59.46,.06,7.39,3.63,10.71,9.93,9.99,4-.46,6.62-2.64,6.87-6.65,.4-6.31,.46-12.64,.45-18.96,0-4.63-3.68-4.31-6.83-4.53Z"/><path class="cls-2" d="M404.22,237.07c-1.09,6.56-2.1,12.59-3.11,18.62-2.33,1.22-4.7,.73-6.94,.65-5.38-.18-8.57-4-7.72-9.31,3.93-24.65,7.95-49.29,11.92-73.93,1.01-6.24,2.04-12.47,2.93-18.73,.48-3.34,2.25-5.94,5.33-6.55,5.7-1.13,11.56-1.29,17.29,.12,3.33,.82,4.7,3.49,5.21,6.64,4.92,30.57,9.81,61.14,14.73,91.7,.61,3.82-.29,7.19-3.73,9.04-3.65,1.97-7.78,1.34-11.67,.55-1.38-.28-1.2-2.26-1.4-3.51-.64-3.94-1.19-7.9-1.59-11.87-.25-2.45-1.27-3.52-3.81-3.47-5.64,.11-11.29,.04-17.45,.04Zm10.58-66.87h-.91c-2.47,16.81-4.95,33.62-7.48,50.85h15.8c-2.5-17.18-4.96-34.01-7.41-50.85Z"/><path class="cls-2" d="M411.48,366.87h28.72c1.22,3.71,.92,7.21,.36,10.55-.59,3.53-3.24,5.41-6.81,5.43-10.81,.07-21.63,.1-32.44-.06-4.47-.07-7.43-3.09-7.44-7.67-.07-31.16-.06-62.33,.03-93.49,.02-5.34,3.11-8.15,8.51-8.18,9.65-.06,19.3-.03,28.95-.02,7.63,0,9.48,1.84,9.5,9.31,0,1.97,0,3.95,0,6.71-7.64,0-14.87,.04-22.11-.01-7.06-.05-7.25,.09-7.27,7.24-.02,7.3,0,14.61,0,22.58,6.31,0,12.25,.15,18.17-.05,3.94-.14,5.32,1.57,5.29,5.32-.12,13.31,1.45,10.49-10.26,10.67-15.31,.23-12.96-1.28-13.18,13.5-.09,5.8-.01,11.61-.01,18.18Z"/><path class="cls-1" d="M177.98,197.96c0-7.97,.02-15.77-.02-23.57-.01-2.02,1.48-2.82,2.74-3.88,7.02-5.98,14.03-11.97,21.82-18.62-8.69-1.5-16.31-2.81-23.82-4.11-1.02-1.54-.79-2.97-.27-5.07,21.12,2.62,40.98,9.01,59.31,19.84,59.35,35.04,93.12,108.29,67.77,182.71-23.66,69.45-92.3,111.6-163.98,102.78C67.33,438.92,12.18,379.56,6.58,305.4,1,231.42,53.03,160.93,126.8,145.32c1.76,2.99,0,4.02-2.56,4.64-4.8,1.17-9.6,2.34-14.95,3.65,2.98,4.64,7.48,6.67,11.14,9.47,7.76,5.92,9.16,9.08,6.4,19.55-3.52-3.76-6.69-7.52-10.25-10.86-3.59-3.36-7.3-6.7-12.51-9.11-1.72,5.72-2.39,11.26-2.67,16.83-.3,5.84,.47,11.61,1.6,17.37,.69,3.49,2.15,4.01,5.15,2.71,6.06-2.63,12.19-5.11,18.3-7.66,2.4,6.35,1.74,7.98-3.68,9.97-46.24,17.04-72.73,67.19-61.21,115.89,9.77,41.29,44.81,71.89,86.53,75.57,47.67,4.2,88.62-21.36,104.12-67.23,17.6-52.07-9.9-105.68-58.46-124.12-4.95-1.88-10.08-3.18-15.78-4.03Zm-73.89,231.17c11.41-7.68,20.65-16.16,26.77-28.41-8.94-3.6-17.55-7.06-26.49-10.66-4.23,13.07-3.54,25.43-.27,39.07Zm202.01-120.3c-10.34,4.36-20.03,8.44-30.45,12.83,6.75,9.77,13.15,19.05,20.2,29.24,5.52-14.11,9.07-27.38,10.25-42.08ZM63.47,402.99c12.59-3.81,23.04-9.37,32.2-18.26-7.06-6.8-13.79-13.4-21.5-19.43-7.29,11.7-10.27,23.83-10.69,37.69ZM252.05,188.25c-12.21,4.05-22.71,9.13-31.56,18.11,7.2,6.6,14,12.83,21.25,19.46,7.08-11.57,10.43-23.55,10.31-37.57Zm-156.29,18.12c-9.86-8.16-19.18-15.43-31.91-16.8-.6,12.28,4.56,29.22,10.93,36.09,6.76-6.21,13.53-12.43,20.99-19.29Zm115.88-44.15c-11.21,7.48-20.35,15.79-26.63,27.83,9.18,3.66,17.82,7.11,26.72,10.66,3.66-13.17,3.41-25.43-.09-38.49Zm87.18,84.38c-7.62,8.23-14.61,15.79-22.1,23.88,10.11,6.01,19.34,12.16,29.84,17.47-.37-14.45-3.08-27.46-7.74-41.35Zm-113.5,154.25c6.51,11.58,15.22,20.06,26.37,27.01,3.41-12.91,3.79-25.08,.05-37.79-8.88,3.62-17.29,7.05-26.42,10.78ZM30.22,238.9c5.74,10.42,11.98,20.26,23.65,26.03,3.8-8.8,7.31-16.92,10.79-24.99-8.52-4.95-27.64-5.58-34.45-1.04Zm20.12,71.6v-27.88c-9.89-.55-26.8,6.58-32.78,13.61,9.39,7.82,19.9,12.79,32.78,14.27Zm120.58,93.13h-28c1.41,12.69,6.26,23.66,13.53,34.37,8-10.54,13.16-21.4,14.48-34.37Zm81.31-2.25c-.28-13.02-2.88-25.11-10.38-36.4-7.22,6.73-14.31,12.62-20.52,19.4,6.93,7.54,21.03,15.31,30.91,17ZM29.46,354.14c12.62,1.82,24.08,2.41,35.63-2.51l-11.48-25.99c-10.79,7.22-18.33,16.31-24.15,28.49Zm233.21-88.79c10.86-7.58,18.34-16.65,23.62-28.24-12.12-2.13-23.31-1.61-35.21,1.73,3.91,8.96,7.59,17.38,11.59,26.51Zm.12,59.75c-3.91,9.08-7.52,17.48-11.31,26.3,11.83,3.58,23.03,3.73,35.04,1.8-5.57-11.42-12.69-20.7-23.72-28.1Zm-5.24-101.95c11.42,1.1,22.06,2.12,33.98,3.26-8.14-11.49-15.43-21.79-23.44-33.1-3.7,10.48-6.97,19.74-10.54,29.84Zm8.47,87.33c12.11-2.16,22.44-6.84,31.96-14.92-9.89-7.06-20.05-11.76-31.96-13.57v28.49Zm23.97,52.77c-11.47,1.12-21.7,2.11-32.45,3.16,3.39,9.63,6.53,18.51,9.93,28.16,9.28-9.09,15.97-19.18,22.52-31.32Zm-67.42-202.69v28.95c10.46-3.46,19.89-6.59,30.57-10.12-10.96-6.75-20.63-12.71-30.57-18.82Zm29.01,249.05c-9.22-3.09-17.56-5.83-25.86-8.67-3.09-1.06-3.32,.65-3.35,3.01-.08,5.66-.33,11.31-.4,16.96-.03,2.19-1.16,4.54,.71,6.96,10.14-4.82,19.56-10.47,28.91-18.26ZM21.61,346.31c6.29-8.66,12.4-16.2,17.72-25.06-9.08-2.89-16.86-7.2-26.02-9.62,1.22,12.03,3.92,22.95,8.3,34.68Zm-10.12-60.32c9.63-5.5,18.01-10.29,27.02-15.43-7.16-6.71-13.78-12.91-20.57-19.27-2.03,10.94-4.11,22.14-6.45,34.7Zm17.76-61.72l.55,1.35c9.3-.74,18.59-1.48,28.71-2.29-3.38-9.29-6.44-17.69-9.88-27.13-7,10.14-13.2,19.11-19.39,28.07Zm.1,139.57c5.98,10.67,11.71,19.63,19.77,28.13,3.23-8.86,6.19-17,9.33-25.63-9.78-.84-18.8-1.61-29.1-2.5Zm63.93-201.68c-9.07,5.86-17.9,11.57-27.81,17.97,9.7,3.29,18.21,6.18,27.81,9.44v-27.42Zm76.33,280.4c11.58-2.15,21.86-4.06,33.39-6.2-7.95-6.84-14.87-12.79-22.26-19.15-3.77,8.59-7.21,16.42-11.13,25.35Zm-76.32-15.43v-27.19c-9.55,3.22-18.04,6.09-27.73,9.35,9.91,6.37,18.81,12.09,27.73,17.83Zm52.77,15.03c-3.99-9.1-7.37-16.82-10.98-25.06-7.24,6.36-13.73,12.05-21.15,18.57,11.18,2.26,20.97,4.24,32.13,6.49Z"/><path class="cls-1" d="M126.97,207.67c1.35,1.58,.8,3.5,.81,5.26,.03,36.82-.03,73.65,.01,110.47,.02,15.49,.34,30.98,.24,46.47-.03,3.83,1.29,4.98,4.93,5.77,46.99,10.13,91.05-17.3,101.25-64.08,5.31-24.34,1.04-47.39-14.32-67.59-5.72-7.52-13.34-13.1-20.89-18.7-5.97-4.42-12.29-8.02-19.08-11.04-4.41-1.97-.81-6.15-2.14-9.32,30.73,3.38,71.92,36.69,73.03,86.13,1.16,51.6-34.9,91.74-86.25,96.29-46.84,4.15-90.99-30.94-98.14-78-7.64-50.25,25.16-90.87,60.56-101.66Z"/><path class="cls-1" d="M162.86,26.58c-.03,5.83-4.61,10.47-10.38,10.5-6.04,.03-10.73-4.69-10.66-10.73,.06-5.88,4.55-10.38,10.39-10.42,6.15-.04,10.68,4.49,10.65,10.65Z"/><path class="cls-1" d="M121.2,186.94c-4.53,1.92-8.11,3.85-12.45,4.49-1.26-5.74-.91-11.28-.39-17.57,5.45,3.39,9.08,7.82,12.83,13.08Z"/><path class="cls-1" d="M178.44,154.23c2.94,.55,5.47,1.02,8.44,1.57-1.47,2.83-3.97,3.81-5.88,5.91-1.91-2.32-3.36-4.18-2.56-7.47Z"/><path class="cls-1" d="M347.75,207.99c2.1-.22,3.89-.52,5.69-.57,8.58-.25,11.77,2.66,12.12,11.36,.19,4.65,.2,9.33-.15,13.96-.43,5.7-2.68,7.6-8.3,7.74-2.49,.06-4.98,.01-7.48-.02-.48,0-.97-.17-1.89-.35v-32.12Z"/><path class="cls-1" d="M347.36,163.8c.99-.42,1.14-.53,1.3-.54,13.73-.94,15.13,.37,15.12,14.2,0,1.82,.07,3.66-.12,5.47-.69,6.72-9.04,11.17-15.03,8.08-1.07-.55-1.27-1.44-1.27-2.46-.01-8.26,0-16.53,0-24.75Z"/><path class="cls-1" d="M522.56,321.7c0-10.5,0-20.49,0-30.47,0-1.01,.06-2.01,1-2.67,4.1-2.89,13.79,.46,14.94,5.4,1.72,7.39,1.23,14.87-.04,22.29-.48,2.8-2.45,4.31-4.99,5-3.37,.92-6.81,1.16-10.91,.44Z"/><path class="cls-1" d="M525.07,163.72c1.12-.3,1.59-.51,2.07-.55,12.14-.81,14.04,.94,14.02,13.07,0,3.83,.01,7.67-.29,11.48-.52,6.53-8.66,11-14.51,8.12-.86-.42-1.28-1.04-1.28-1.93-.01-10.11,0-20.22,0-30.19Z"/><path class="cls-1" d="M466.97,195.83v-32.64c3.35,0,6.61-.18,9.85,.05,3.46,.24,5.32,2.53,5.79,5.83,.99,6.94,.82,13.9-.12,20.82-.45,3.34-2.72,5.13-5.99,5.75-2.96,.56-5.92,.47-9.52,.18Z"/><path class="cls-1" d="M599.86,328.17c0,10.16,.06,20.32-.03,30.48-.04,4.23-1.18,7.99-5.85,9.38-6.39,1.91-11.18-1.85-11.3-9.33-.22-13.32-.12-26.65-.14-39.98,0-6.66-.08-13.33,.06-19.99,.15-7.02,3.22-10.61,8.65-10.5,5.74,.12,8.61,3.43,8.68,10.44,.1,9.83,.03,19.66,.03,29.49h-.1Z"/><path class="cls-1" d="M600.33,202.48c0,9.81,.07,19.62-.03,29.42-.07,6.46-3.2,10.06-8.51,10.14-3.92,.06-6.61-1.62-7.98-5.43-.93-2.57-1.07-5.19-1.08-7.85,0-17.62-.01-35.24,0-52.86,0-2.66,.35-5.27,.93-7.89,1.02-4.61,4.12-6.21,8.32-6.24,4.24-.03,6.86,2.26,7.69,6.38,.42,2.1,.63,4.27,.64,6.42,.07,9.31,.03,18.62,.02,27.93Z"/><path class="cls-1" d="M414.8,170.2c2.45,16.83,4.91,33.67,7.41,50.85h-15.8c2.53-17.22,5.01-34.03,7.48-50.85h.91Z"/><path class="cls-2" d="M104.08,429.13c-3.26-13.64-3.95-26,.27-39.07,8.95,3.6,17.55,7.06,26.49,10.66-6.12,12.25-15.36,20.73-26.77,28.41Zm17.3-25.21c-4.47-1.53-7.99-3.92-12.64-4.46-1.12,5.96-1.03,11.59-.25,17.89,5.4-3.68,9.2-7.99,12.9-13.43Z"/><path class="cls-2" d="M306.09,308.84c-1.18,14.7-4.73,27.97-10.25,42.08-7.04-10.2-13.45-19.47-20.2-29.24,10.42-4.39,20.11-8.47,30.45-12.83Zm-12.14,27.79c2-6.05,3.53-11.21,3.98-17.29-4.47,1.98-8.44,2.99-12.01,5.67,2.61,3.79,5.03,7.29,8.02,11.63Z"/><path class="cls-2" d="M63.47,402.99c.42-13.86,3.4-25.99,10.69-37.69,7.71,6.02,14.44,12.63,21.5,19.43-9.16,8.89-19.6,14.45-32.2,18.26Zm22.47-18.6c-3.47-3.14-6.45-5.82-9.97-9-2.58,6.02-4.78,11.3-4.74,17.72,5.57-2.23,10.07-4.85,14.71-8.72Z"/><path class="cls-2" d="M252.05,188.25c.13,14.02-3.23,26.01-10.31,37.57-7.25-6.64-14.05-12.87-21.25-19.46,8.86-8.98,19.35-14.06,31.56-18.11Zm-7.15,9.94c-5.83,1.84-10.13,4.64-14.51,8.19,3.49,3.07,5.84,6.46,9.91,8.45,2.12-5.35,3.99-10.37,4.6-16.64Z"/><path class="cls-2" d="M95.76,206.36c-7.46,6.86-14.23,13.08-20.99,19.29-6.37-6.87-11.53-23.81-10.93-36.09,12.73,1.37,22.06,8.64,31.91,16.8Zm-20.01,8.96c3.93-2.49,6.76-5.51,9.77-9.06-4.6-3.14-8.84-6.13-14.43-8.07,.2,6.29,2.15,11.56,4.66,17.13Z"/><path class="cls-2" d="M211.64,162.21c3.5,13.06,3.75,25.32,.09,38.49-8.9-3.55-17.54-7-26.72-10.66,6.28-12.04,15.43-20.35,26.63-27.83Zm-4.58,11.55c-5.09,4.08-9.16,7.91-12.18,13.12,4.13,1.53,7.58,3.85,12.34,4.43,.77-5.68,1.44-11.1-.16-17.55Z"/><path class="cls-2" d="M298.83,246.59c4.66,13.89,7.37,26.9,7.74,41.35-10.49-5.32-19.73-11.46-29.84-17.47,7.49-8.09,14.49-15.65,22.1-23.88Zm.16,29.15c-.73-5.81-1.12-10.69-3.43-15.59-3.53,2.91-5.84,5.78-8.21,9.01,3.67,2.44,7,4.71,11.64,6.59Z"/><path class="cls-2" d="M185.33,400.83c9.13-3.72,17.54-7.15,26.42-10.78,3.74,12.71,3.36,24.88-.05,37.79-11.15-6.95-19.85-15.43-26.37-27.01Zm22.13,15.36c.8-6.1,1.17-11.44-.74-17.35-3.93,2.27-7.92,2.84-11.29,5.56,3.52,4.32,6.46,8.68,12.03,11.79Z"/><path class="cls-2" d="M30.22,238.9c6.81-4.54,25.93-3.91,34.45,1.04-3.48,8.06-6.99,16.19-10.79,24.99-11.68-5.77-17.92-15.61-23.65-26.03Zm9.73,3.46c3.01,5.42,6.6,9.15,11.04,13.14,1.68-4.54,3.94-7.91,4.57-12.05-4.99-1.13-9.7-1.54-15.61-1.09Z"/><path class="cls-2" d="M50.35,310.5c-12.88-1.48-23.39-6.45-32.78-14.27,5.98-7.04,22.89-14.17,32.78-13.61v27.88Zm-7.06-20.73c-5.16,1.34-9.8,3.13-14.84,6.02,5.01,3.4,9.58,5.85,15.37,6.7-.08-4.55,.75-8.45-.52-12.72Z"/><path class="cls-2" d="M170.93,403.63c-1.32,12.98-6.48,23.83-14.48,34.37-7.27-10.71-12.11-21.68-13.53-34.37h28Zm-19.94,6.39c.69,5.69,3.01,10.44,5.89,15.92,2.65-5.47,5.46-10.02,6.01-15.78-4.02-.86-7.68-.71-11.9-.14Z"/><path class="cls-2" d="M252.24,401.38c-9.87-1.69-23.98-9.46-30.91-17,6.21-6.78,13.3-12.67,20.52-19.4,7.5,11.28,10.1,23.37,10.38,36.4Zm-6.93-9.1c-1.36-6.09-2.23-11.38-5.04-16.58-3.45,2.71-6.71,5.04-9,8.64,4.05,3.49,8.39,5.76,14.04,7.93Z"/><path class="cls-2" d="M29.46,354.14c5.82-12.19,13.36-21.27,24.15-28.49l11.48,25.99c-11.55,4.92-23.01,4.32-35.63,2.51Zm10.75-5.35c5.52,.73,10.38-.04,15.77-.85-1.34-4.3-2.79-8.02-5.31-11.75-4.05,3.67-7.73,7.13-10.45,12.6Z"/><path class="cls-2" d="M262.67,265.34c-3.99-9.13-7.67-17.55-11.59-26.51,11.9-3.35,23.09-3.86,35.21-1.73-5.29,11.59-12.76,20.66-23.62,28.24Zm12.48-22.98c-5.21-.4-9.95-.07-14.94,1.17,1.65,3.71,3.23,7.27,4.83,10.88,4.37-2.69,8.41-7.48,10.11-12.06Z"/><path class="cls-2" d="M262.79,325.1c11.04,7.4,18.15,16.67,23.72,28.1-12.01,1.93-23.21,1.78-35.04-1.8,3.8-8.82,7.41-17.22,11.31-26.3Zm12.8,22.76c-2.38-5.18-5.91-8.61-9.78-12.22-2.48,3.84-3.69,7.39-5.12,11.28,4.78,1.05,9.3,1.44,14.9,.94Z"/><path class="cls-2" d="M257.56,223.14c3.57-10.1,6.84-19.37,10.54-29.84,8.01,11.32,15.31,21.61,23.44,33.1-11.93-1.14-22.57-2.17-33.98-3.26Zm20.6-4.68c-3.5-3.83-4.71-7.78-8.41-10.35-1.11,3.19-2.06,5.93-3.08,8.88,3.39,1.06,6.61,1.33,11.49,1.47Z"/><path class="cls-2" d="M266.03,310.47v-28.49c11.91,1.81,22.07,6.52,31.96,13.57-9.52,8.08-19.86,12.77-31.96,14.92Zm6.33-8.49c5.02-1.11,9.45-2.62,13.5-6.29-4.6-2.61-8.66-4.59-13.45-5.51-.53,4.14-.45,7.73-.05,11.8Z"/><path class="cls-2" d="M290.01,363.24c-6.55,12.14-13.24,22.23-22.52,31.32-3.4-9.65-6.54-18.54-9.93-28.16,10.75-1.05,20.98-2.04,32.45-3.16Zm-12.52,7.98c-4.08,.01-7.31-.06-10.7,1.06,1.12,3.18,1.24,6.36,3.65,8.91,2.87-2.81,4.86-5.93,7.05-9.97Z"/><path class="cls-2" d="M222.59,160.55c9.94,6.12,19.6,12.07,30.57,18.82-10.67,3.53-20.1,6.66-30.57,10.12v-28.95Zm6.26,11.86c-.18,3.01-.44,5.27,.55,7.69,2.61-.36,4.99-1.16,7.63-2.53-2.4-2.26-4.89-3.66-8.18-5.16Z"/><path class="cls-2" d="M251.59,409.6c-9.35,7.79-18.77,13.44-28.91,18.26-1.87-2.42-.74-4.76-.71-6.96,.08-5.66,.33-11.31,.4-16.96,.03-2.35,.26-4.06,3.35-3.01,8.3,2.84,16.64,5.59,25.86,8.67Zm-22.55-.35v7.53c3.1-1.25,5.75-2.33,7.7-4.94-2.44-1.27-4.7-2.19-7.7-2.59Z"/><path class="cls-2" d="M21.61,346.31c-4.38-11.73-7.08-22.65-8.3-34.68,9.16,2.42,16.94,6.73,26.02,9.62-5.32,8.86-11.42,16.4-17.72,25.06Zm2.11-14.76c2.26-2.46,4.71-4.04,4.71-7.36-2.2-.84-3.97-2.06-6.28-2.07-1.27,3.39,.95,5.96,1.57,9.43Z"/><path class="cls-2" d="M11.49,285.99c2.33-12.56,4.41-23.76,6.45-34.7,6.79,6.36,13.42,12.57,20.57,19.27-9.01,5.14-17.4,9.93-27.02,15.43Zm9.05-13.73c2.69-.85,5.27-1.12,6.8-3.39-1.08-2.12-2.74-3.48-5.06-4.93l-1.74,8.32Z"/><path class="cls-2" d="M29.26,224.26c6.19-8.97,12.38-17.93,19.39-28.07,3.44,9.44,6.5,17.84,9.88,27.13-10.12,.81-19.42,1.55-28.71,2.29l-.55-1.35Zm16.9-13.27c-1.27,2.48-3.34,4.03-3.66,6.96,2.49-.04,4.71,.14,6.9-1.38-1.09-1.71-1.02-3.87-3.23-5.59Z"/><path class="cls-2" d="M29.36,363.83c10.3,.88,19.32,1.66,29.1,2.5-3.14,8.63-6.1,16.77-9.33,25.63-8.07-8.5-13.79-17.45-19.77-28.13Zm12.43,7.84c1.65,2.76,2.74,5.06,5.11,6.86,1.01-2.15,2.28-3.88,1.73-6.46-1.98-.74-4.03-.84-6.84-.4Z"/><path class="cls-2" d="M93.28,162.15v27.42c-9.6-3.26-18.11-6.15-27.81-9.44,9.9-6.4,18.74-12.11,27.81-17.97Zm-11.8,16.12c1.75,1.28,3.26,1.65,5.29,1.39,.42-1.63,1.13-3.23,.13-5.24-2.06,.88-3.98,1.68-5.42,3.84Z"/><path class="cls-2" d="M169.61,442.56c3.92-8.93,7.36-16.76,11.13-25.35,7.39,6.36,14.31,12.31,22.26,19.15-11.53,2.14-21.81,4.05-33.39,6.2Zm13.91-14.03c-1.46,1.41-2.3,2.7-1.94,4.73,1.96,.29,3.75,.17,5.39-.83-.18-2.36-1.88-2.86-3.45-3.9Z"/><path class="cls-2" d="M93.29,427.13c-8.93-5.74-17.83-11.46-27.73-17.83,9.69-3.27,18.18-6.13,27.73-9.35v27.19Zm-11.72-15.66c1.65,1.73,3.16,3.1,5.57,3.03,.41-2.05,.46-3.76-1.06-5.06-1.77-.19-2.93,.7-4.51,2.02Z"/><path class="cls-2" d="M146.06,442.16c-11.16-2.25-20.95-4.23-32.13-6.49,7.42-6.52,13.9-12.21,21.15-18.57,3.61,8.24,7,15.96,10.98,25.06Zm-17.01-9.75c2.06-.7,3.45,1.55,5.34,.12-.04-1.64-.72-2.87-2-4.18-1.03,1.04-2.58,1.38-3.34,4.06Z"/><path class="cls-1" d="M121.38,403.92c-3.7,5.44-7.49,9.76-12.9,13.43-.78-6.3-.87-11.93,.25-17.89,4.65,.54,8.17,2.93,12.64,4.46Z"/><path class="cls-1" d="M293.95,336.62c-3-4.34-5.41-7.84-8.02-11.63,3.56-2.68,7.54-3.68,12.01-5.67-.46,6.08-1.98,11.24-3.98,17.29Z"/><path class="cls-1" d="M85.94,384.39c-4.64,3.87-9.14,6.5-14.71,8.72-.04-6.43,2.17-11.7,4.74-17.72,3.52,3.18,6.49,5.86,9.97,9Z"/><path class="cls-1" d="M244.9,198.19c-.62,6.27-2.48,11.29-4.6,16.64-4.07-1.99-6.42-5.39-9.91-8.45,4.38-3.55,8.68-6.35,14.51-8.19Z"/><path class="cls-1" d="M75.76,215.32c-2.51-5.57-4.46-10.84-4.66-17.13,5.59,1.94,9.83,4.93,14.43,8.07-3.01,3.54-5.84,6.57-9.77,9.06Z"/><path class="cls-1" d="M207.06,173.76c1.6,6.45,.93,11.87,.16,17.55-4.76-.58-8.21-2.89-12.34-4.43,3.02-5.21,7.08-9.05,12.18-13.12Z"/><path class="cls-1" d="M298.99,275.73c-4.64-1.88-7.97-4.15-11.64-6.59,2.38-3.23,4.69-6.09,8.21-9.01,2.31,4.91,2.7,9.78,3.43,15.59Z"/><path class="cls-1" d="M207.46,416.2c-5.57-3.11-8.51-7.47-12.03-11.79,3.37-2.73,7.36-3.3,11.29-5.56,1.91,5.91,1.54,11.25,.74,17.35Z"/><path class="cls-1" d="M39.95,242.36c5.9-.45,10.61-.03,15.61,1.09-.63,4.14-2.89,7.51-4.57,12.05-4.44-3.99-8.03-7.73-11.04-13.14Z"/><path class="cls-1" d="M43.29,289.76c1.28,4.27,.45,8.17,.52,12.72-5.79-.85-10.36-3.3-15.37-6.7,5.04-2.89,9.68-4.68,14.84-6.02Z"/><path class="cls-1" d="M150.99,410.02c4.22-.56,7.88-.72,11.9,.14-.55,5.76-3.36,10.31-6.01,15.78-2.88-5.48-5.2-10.23-5.89-15.92Z"/><path class="cls-1" d="M245.3,392.29c-5.64-2.18-9.99-4.45-14.04-7.93,2.29-3.61,5.55-5.93,9-8.64,2.8,5.2,3.68,10.48,5.04,16.58Z"/><path class="cls-1" d="M40.21,348.78c2.72-5.47,6.41-8.93,10.45-12.6,2.52,3.73,3.97,7.45,5.31,11.75-5.39,.82-10.24,1.58-15.77,.85Z"/><path class="cls-1" d="M275.15,242.36c-1.7,4.57-5.74,9.36-10.11,12.06-1.6-3.61-3.18-7.17-4.83-10.88,4.99-1.24,9.73-1.57,14.94-1.17Z"/><path class="cls-1" d="M275.6,347.86c-5.6,.5-10.11,.11-14.9-.94,1.43-3.89,2.64-7.44,5.12-11.28,3.87,3.62,7.4,7.04,9.78,12.22Z"/><path class="cls-1" d="M278.16,218.46c-4.88-.14-8.09-.41-11.49-1.47,1.03-2.95,1.98-5.69,3.08-8.88,3.7,2.57,4.9,6.53,8.41,10.35Z"/><path class="cls-1" d="M272.36,301.98c-.4-4.07-.48-7.66,.05-11.8,4.79,.92,8.85,2.91,13.45,5.51-4.05,3.67-8.48,5.18-13.5,6.29Z"/><path class="cls-1" d="M277.48,371.22c-2.19,4.04-4.18,7.16-7.05,9.97-2.41-2.55-2.53-5.73-3.65-8.91,3.39-1.12,6.62-1.05,10.7-1.06Z"/><path class="cls-1" d="M228.84,172.41c3.3,1.5,5.78,2.91,8.18,5.16-2.64,1.37-5.02,2.16-7.63,2.53-1-2.42-.74-4.68-.55-7.69Z"/><path class="cls-1" d="M229.05,409.25c3,.4,5.26,1.32,7.7,2.59-1.96,2.61-4.6,3.69-7.7,4.94v-7.53Z"/><path class="cls-1" d="M23.72,331.55c-.62-3.47-2.84-6.04-1.57-9.43,2.32,.02,4.08,1.23,6.28,2.07,0,3.32-2.45,4.9-4.71,7.36Z"/><path class="cls-1" d="M20.55,272.26l1.74-8.32c2.32,1.45,3.99,2.8,5.06,4.93-1.53,2.27-4.11,2.54-6.8,3.39Z"/><path class="cls-1" d="M46.16,210.99c2.21,1.72,2.15,3.88,3.23,5.59-2.18,1.52-4.4,1.34-6.9,1.38,.33-2.94,2.4-4.49,3.66-6.96Z"/><path class="cls-1" d="M41.79,371.67c2.81-.44,4.87-.34,6.84,.4,.55,2.58-.72,4.31-1.73,6.46-2.38-1.8-3.47-4.1-5.11-6.86Z"/><path class="cls-1" d="M81.48,178.27c1.43-2.17,3.36-2.96,5.42-3.84,1,2,.3,3.6-.13,5.24-2.03,.26-3.54-.11-5.29-1.39Z"/><path class="cls-1" d="M183.52,428.53c1.57,1.03,3.27,1.54,3.45,3.9-1.65,1-3.43,1.12-5.39,.83-.35-2.03,.48-3.31,1.94-4.73Z"/><path class="cls-1" d="M81.57,411.47c1.59-1.32,2.75-2.21,4.51-2.02,1.52,1.3,1.47,3.01,1.06,5.06-2.41,.06-3.92-1.3-5.57-3.03Z"/><path class="cls-1" d="M129.05,432.41c.76-2.68,2.31-3.02,3.34-4.06,1.27,1.31,1.95,2.54,2,4.18-1.88,1.43-3.28-.82-5.34-.12Z"/></svg>