<?xml version="1.0" encoding="UTF-8"?><svg id="Capa_1" xmlns="http://www.w3.org/2000/svg" viewBox="0 0 724.98 530.84"><defs><style>.cls-1{fill:#231f20;}</style></defs><g><path d="M379.42,327.21c-2.4-5.6-7.24-8.92-11.64-12.49-6.01-4.87-13.02-7.87-20.34-10.3-16.78-5.57-30.13,1.52-40.79,12.95-21.08,22.6-23.93,55.29-8.36,81.76,7.67,13.03,18.85,21.68,33.64,25.3,6.62,1.62,13-.33,18.98-2.62,15.96-6.12,28.47-16.27,35.31-32.45,.26-.61,.54-1.21,.84-1.8,.9-1.72,2.26-2.45,4.12-1.65,2.21,.95,1.56,2.5,.81,4.14-3.96,8.75-9.16,16.77-16.49,22.89-22.66,18.93-47.81,23.41-74.67,10.19-20.6-10.15-32.42-27.41-36.12-50.13-.53-3.24-.39-3.27-1.93-5.8-10.74,43.25-36.27,66.67-82.35,57.04-29.32-6.13-48.14-33-47.96-62.2,.17-28.3,19.77-54.39,46.11-61.5,19.57-5.28,38.1-2.82,54.84,8.57,16.57,11.28,25.8,27.56,28.32,47.45,3.22-.6,2.82-2.59,3.13-4.06,7.81-36.42,37.36-58.97,74.2-54.57,25.68,3.07,43.92,17.84,53.78,42.04,3.65,8.95-1.69,19.34-10.67,22.16-9.53,2.99-19.74-2.07-22.57-11.19-2.9-9.37,2.62-19.12,12.22-21.89,2.35-.68,4.99,.03,7.56-1.84Zm-223.04,34.99c-.04,15.66,3.67,29.04,11.68,42.18,13.92,22.85,39.94,24.11,55.94,2.72,17.39-23.25,18.21-63.09,1.78-87.17-16.14-23.66-42.13-23.38-57.73,.6-8.24,12.67-11.46,26.74-11.67,41.67Z"/><path d="M525.71,362.65c.02,34.96-29.14,64.14-64.24,64.27-35.6,.13-65.05-29.16-64.98-64.62,.07-35.28,29.37-64.55,64.55-64.51,35.61,.04,64.64,29.17,64.66,64.86Zm-104.94-4.82c-.65,16.11,2.16,31.43,10.74,45.31,5.67,9.18,13.19,16.44,24.15,18.63,13.37,2.67,26.83-4.51,34.74-18.22,13.94-24.18,14.61-49.33,4.08-74.72-4.9-11.8-12.84-21.45-25.84-25.34-12.59-3.77-25.82,1.91-35.11,15.03-8.32,11.74-12.02,25.04-12.76,39.3Z"/><path d="M116.27,327.82c-6.79-9.92-15.13-16.12-25-20.47-1.37-.6-2.84-.96-4.21-1.55-18.44-7.96-33.13-.94-44.96,11.68-21.86,23.3-24.07,58.24-6.27,84.74,7.7,11.47,18.46,19.03,31.94,22.36,6.42,1.59,12.63-.46,18.54-2.53,16.08-5.63,28.09-16.12,35.7-31.48,.37-.75,.71-1.51,1.08-2.25,.77-1.57,1.71-3.14,3.77-2.24,2.31,1,1.16,2.72,.51,4.22-6.51,15.17-17.34,26.39-32.17,33.33-31.98,14.98-67.6,3.96-85.9-26.18-13.47-22.19-12.36-51.36,3.77-72.85,16.72-22.28,39.45-31.07,66.78-25.75,22.6,4.4,38.59,17.95,47.84,39.03,5.61,12.8-2.83,25.71-15.96,25.06-8.77-.43-15.74-6.87-16.43-15.17-.79-9.57,4.73-17.11,13.93-18.93,1.92-.38,3.88-.56,7.05-1Z"/><path d="M584.33,246.48c11.26,0,22.52,0,33.78,0,1.85,0,2.73,.98,2.76,2.78,.02,1.33,.03,2.66,.03,3.99,0,49.58,.01,99.17-.02,148.75,0,6.81,.81,13.25,5.71,18.57,2.05,2.24,4.98,3.2,7.81,5.99h-50.29c-.07-1.46,1.05-1.69,1.88-2.1,6.42-3.14,9.52-8.56,10.5-15.37,.33-2.29,.39-4.64,.39-6.97,.02-43.43,.02-86.86,0-130.28,0-5.68-.23-11.3-3.42-16.37-2.3-3.64-5.9-5.68-9.15-8.99Z"/><path d="M531.05,246.46c11.24,0,22.49-.06,33.73,.05,2.66,.03,2.33,2.38,2.34,4.15,.04,6.15,0,12.3,0,18.46,0,44.23,.04,88.46-.03,132.69-.02,10.55,2.65,19.42,13.23,24.69h-50.06c1.02-.94,1.41-1.49,1.93-1.75,8.11-4.05,11.28-11.1,11.3-19.62,.1-45.39,.06-90.79,.03-136.19,0-9.54-3.6-17.08-13.01-21.17,.19-.44,.37-.88,.56-1.31Z"/><path d="M687.2,426.93h-48.72c.28-.83,.31-1.49,.59-1.63,9.31-4.62,11.99-12.86,12.02-22.38,.08-26.61,.01-53.23,.03-79.84,0-10.34-2.79-19.09-13.26-23.37,.76-2.27,2.34-1.52,3.46-1.53,9.14-.09,18.3,.16,27.43-.18,4.56-.17,6.01,1.18,5.99,5.85-.17,32.93-.06,65.87-.1,98.8,0,7.22,1.15,13.98,6.76,19.11,1.79,1.64,3.99,2.83,6,4.23l-.2,.94Z"/><path d="M340.29,101.37c-8.3,0-14.65-10.3-13.55-19.93,1.17-10.29,7.17-18.14,14.44-24.93,2.89-2.7,6.87-2.59,10.29-.54,8.07,4.84,16.05,22.99,14.35,32.23-1.3,7.09-6.21,12.08-13.86,13.25,6.12-6.63,3.71-12.66-.24-18.48-3.24-4.78-6.27-4.85-9.89-.45-5.57,6.78-5.9,10.75-1.55,18.86Z"/><path d="M352.66,157.64c4.34-8.29,3.49-14.26-2.43-20.33-2.29-2.35-4.45-2.51-6.92-.3-6.58,5.87-7.57,13.09-2.71,20.3-5.6-.15-9.8-3.45-12.31-9.46-4.3-10.3-.08-18.91,5.61-27,9.7-13.79,15.12-13.71,25.02-.13,4.93,6.77,8.44,13.92,7.04,22.68-1.16,7.31-5.8,12.57-13.31,14.24Z"/><path d="M340.12,46.76c-10.41-2.81-15.87-13.71-12.47-24.43,2.46-7.74,7.07-14.27,12.84-19.91,3.45-3.37,9.18-3.2,12.57,.4,4.91,5.22,9.18,10.96,11.77,17.74,3.43,9,.63,19.27-6.47,24.14-1.46,1-2.91,2.19-5.55,1.59,5.64-7.22,2.76-13.43-2.05-19.29-2.77-3.37-5.3-3.33-8.31-.15-5.83,6.16-6.52,11.39-2.32,19.91Z"/><path d="M339.67,210.93c-7.84-1.83-12.69-8.2-12.65-16.81,.06-11.85,6.72-20.61,15.21-27.92,2.93-2.52,7.19-2.14,10.05,.86,5.63,5.91,10.66,12.32,12.95,20.38,2.25,7.89-.34,16.77-6.08,21.23-1.17,.91-2.3,1.96-4.26,1.6-.38-3.21,2.07-6.18,1.01-9.53-.98-3.06-2.47-5.8-4.36-8.33-3.28-4.4-6.18-4.58-9.61-.42-4.49,5.44-7.18,11.3-2.25,18.94Z"/><path d="M662.64,264.6c-9.36,.05-17.22-7.67-17.32-17-.1-9.41,7.54-17.19,16.97-17.3,9.78-.12,17.56,7.52,17.55,17.21-.01,9.4-7.7,17.04-17.2,17.09Z"/><path d="M362.49,53.51c13.11-6.76,12.19-18.65,11.78-30.45-.2-5.65-.07-11.31,.01-16.96,.02-1.52-.55-3.8,2.04-3.69,2.49,.11,1.83,2.34,1.88,3.88,.09,2.66,.14,5.33,0,7.98-.51,9.52,.62,18.23,5.78,26.99,7.46,12.65,3.75,27.78-8.08,38.62-1.18-5.18-1.98-10.01-4.01-14.45-2.05-4.48-5.65-7.68-9.4-11.92Z"/><path d="M329.61,54.06c-3.12,3.17-6.36,6.66-8.6,10.96-2.24,4.29-2.45,9.18-4.14,13.68-7.75-4.47-13.36-18.37-11.16-28.66,1.09-5.09,2.71-9.98,5.76-14.19,2.17-3,3.01-6.1,2.92-9.74-.16-6.8-.05-13.61-.02-20.41,0-1.47-.21-3.35,1.94-3.34,2.1,0,1.98,1.83,1.98,3.34,0,8.46,.4,16.95-.11,25.39-.5,8.27,2.71,14.43,8.74,19.56,.98,.84,2.28,1.44,2.71,3.43Z"/><path d="M376.69,138.61c-1.64-10.73-5.1-19.7-13.42-26.35,6.74-7.06,13.29-13.79,12.45-24.26,15.91,6.06,16.72,34.71,.97,50.61Z"/><path d="M316.36,143.82c1.4,10.1,5.42,18.1,13,24.52-7.74,6.97-11.51,15.39-12.04,25.44-15.71-9.79-17.19-35.23-.96-49.96Z"/><path d="M316.22,138.33c-16.89-12.38-13.76-39.07,.61-49.34-.1,9.42,4.17,16.44,10.8,22.23,1.24,1.08,1.36,2.41,.11,3.43-7.41,6.06-9.88,14.61-11.53,23.68Z"/><path d="M363.78,168.08c7.11-6.72,12.84-13.46,14.03-23.15,12.25,11.01,13.91,36.43-2.73,48.47-.83-9.75-3.34-18.5-11.3-25.31Z"/><path d="M343.32,242.87c0-8.63,.01-17.26,0-25.89,0-2.47,0-4.71,3.51-4.65,3.22,.05,3.21,2.14,3.21,4.41,0,17.76-.02,35.51,.02,53.27,0,2.46-.4,4.23-3.49,4.15-3.14-.08-3.28-2.08-3.27-4.4,.02-8.96,0-17.92,0-26.89h.02Z"/><path d="M724.98,271.89l-.04,1.94c-.88-.66-1.09-1.32,.04-1.94Z"/></g><g><path class="cls-1" d="M6.52,500.79c-.07-.13-.07-.2,0-.4v-15.09c0-.46,.42-.86,.83-.86,.56,0,.83,.4,.83,.86v10.94c.56-1.19,1.25-2.5,2.15-3.82,2.64-3.76,7.01-7.97,13.54-7.97,.56,0,.9,.4,.9,.86s-.35,.86-.9,.86c-4.3,0-7.57,1.98-9.86,4.42-2.43,2.64-4.1,5.93-5,7.97-.56,1.45-.83,2.24-.83,2.24v15.09c0,.53-.28,.86-.83,.86-.42,0-.83-.33-.83-.86v-15.09Z"/><path class="cls-1" d="M31.03,500.59c.14-8.96,7.43-16.15,16.52-16.15s15.69,6.52,16.31,14.89v.26c-.07,.4-.42,.79-.83,.79h-30.26v.2c0,7.91,6.59,14.43,14.78,14.5,5.14,0,9.65-2.64,12.22-6.59,.28-.39,.76-.39,1.25-.2,.35,.2,.49,.72,.21,1.12-2.92,4.28-7.98,7.32-13.67,7.32-9.09-.13-16.38-7.32-16.52-16.15Zm1.8-1.78h29.29c-.9-7.18-7.15-12.65-14.58-12.65s-13.81,5.47-14.72,12.65Z"/><path class="cls-1" d="M75.73,501.05v-15.75c0-.53,.35-.86,.9-.86,.49,0,.83,.33,.83,.86v7.97c2.64-5.27,8.19-8.83,14.51-8.83,9.16,0,16.38,7.12,16.38,15.95s-7.22,16.01-16.38,16.01c-6.32,0-11.87-3.62-14.51-8.77v22.34c0,.53-.35,.86-.83,.86-.56,0-.9-.33-.9-.86v-28.93Zm1.73-.66c0,7.91,6.59,14.3,14.51,14.3s14.58-6.39,14.58-14.3-6.59-14.3-14.58-14.3-14.23,6.13-14.51,13.71v.59Z"/><path class="cls-1" d="M135.99,484.44c8.88,0,16.1,7.25,16.1,16.15s-7.22,16.15-16.1,16.15-16.03-7.32-16.03-16.15,7.15-16.15,16.03-16.15Zm0,30.64c7.84,0,14.37-6.52,14.37-14.5s-6.52-14.5-14.37-14.5-14.3,6.46-14.3,14.5,6.46,14.5,14.3,14.5Z"/><path class="cls-1" d="M162.3,511.07c.28-.46,.83-.53,1.25-.13,2.5,1.91,6.73,4.15,11.25,4.15,2.98,0,5.55-.86,7.5-2.17,1.94-1.32,3.05-3.1,3.05-5.01-.07-1.84-.97-3.29-2.85-4.55-1.94-1.19-4.58-2.04-7.84-2.64h-.21c-3.12-.46-5.9-1.25-7.91-2.64-2.01-1.25-3.4-3.16-3.4-5.47,.07-4.68,5.35-8.17,11.59-8.17,4.3,0,7.64,2.04,10.27,3.76,.42,.26,.49,.79,.28,1.12-.28,.4-.83,.53-1.25,.26-2.64-1.65-5.55-3.49-9.3-3.49-2.85,0-5.34,.79-7.08,2.04s-2.71,2.77-2.71,4.48,.83,2.97,2.57,4.09,4.3,1.91,7.36,2.5h.07c3.4,.66,6.32,1.38,8.54,2.77,2.15,1.38,3.61,3.43,3.61,5.93-.07,5.07-5.69,8.83-12.29,8.83-5.14,0-9.65-2.5-12.36-4.61-.42-.26-.42-.72-.14-1.05Z"/><path class="cls-1" d="M211.51,485.3c0,.46-.42,.79-.9,.79h-5.55v25.7c0,1.84,1.6,3.36,3.54,3.36,.49,0,.9,.33,.9,.79s-.42,.86-.9,.86c-2.92,0-5.28-2.24-5.28-5.01v-25.7h-5.83c-.49,0-.9-.33-.9-.79s.42-.86,.9-.86h5.83v-12.92c0-.46,.35-.86,.83-.86s.9,.4,.9,.86v12.92h5.55c.49,0,.9,.4,.9,.86Z"/><path class="cls-1" d="M222.69,500.59c.14-8.96,7.43-16.15,16.52-16.15s15.69,6.52,16.31,14.89v.26c-.07,.4-.42,.79-.83,.79h-30.26v.2c0,7.91,6.59,14.43,14.78,14.5,5.14,0,9.65-2.64,12.22-6.59,.28-.39,.76-.39,1.25-.2,.35,.2,.49,.72,.21,1.12-2.92,4.28-7.98,7.32-13.67,7.32-9.09-.13-16.38-7.32-16.52-16.15Zm1.8-1.78h29.29c-.9-7.18-7.15-12.65-14.58-12.65s-13.81,5.47-14.72,12.65Z"/><path class="cls-1" d="M266,500.79c-.07-.13-.07-.2,0-.4v-15.09c0-.46,.42-.86,.83-.86,.56,0,.83,.4,.83,.86v10.94c.56-1.19,1.25-2.5,2.15-3.82,2.64-3.76,7.01-7.97,13.54-7.97,.56,0,.9,.4,.9,.86s-.35,.86-.9,.86c-4.3,0-7.57,1.98-9.86,4.42-2.43,2.64-4.1,5.93-5,7.97-.56,1.45-.83,2.24-.83,2.24v15.09c0,.53-.28,.86-.83,.86-.42,0-.83-.33-.83-.86v-15.09Z"/><path class="cls-1" d="M296.48,474.88c0-.53,.35-.86,.9-.86,.42,0,.83,.33,.83,.86v1.58c0,.4-.42,.79-.83,.79-.56,0-.9-.4-.9-.79v-1.58Zm0,10.35c0-.53,.35-.79,.9-.79,.42,0,.83,.26,.83,.79v30.65c0,.46-.42,.86-.83,.86-.56,0-.9-.4-.9-.86v-30.65Z"/><path class="cls-1" d="M344.3,485.3v30.58c0,.53-.35,.86-.83,.86-.56,0-.9-.33-.9-.86v-8.04c-2.64,5.27-8.05,8.9-14.3,8.9-8.88,0-16.03-7.32-16.03-16.15s7.15-16.15,16.03-16.15c6.25,0,11.66,3.69,14.3,8.9v-8.04c0-.4,.35-.86,.9-.86,.49,0,.83,.46,.83,.86Zm-1.73,15.29c0-7.97-6.46-14.43-14.3-14.43s-14.3,6.46-14.3,14.43,6.46,14.5,14.3,14.5,14.3-6.46,14.3-14.5Z"/><path class="cls-1" d="M408.09,485.3v30.58c0,.53-.35,.86-.83,.86-.55,0-.9-.33-.9-.86v-8.04c-2.64,5.27-8.05,8.9-14.3,8.9-8.88,0-16.03-7.32-16.03-16.15s7.15-16.15,16.03-16.15c6.25,0,11.66,3.69,14.3,8.9v-8.04c0-.4,.35-.86,.9-.86,.49,0,.83,.46,.83,.86Zm-1.74,15.29c0-7.97-6.46-14.43-14.3-14.43s-14.3,6.46-14.3,14.43,6.46,14.5,14.3,14.5,14.3-6.46,14.3-14.5Z"/><path class="cls-1" d="M422.74,500.79c-.07-.13-.07-.2,0-.4v-15.09c0-.46,.42-.86,.83-.86,.56,0,.83,.4,.83,.86v10.94c.56-1.19,1.25-2.5,2.15-3.82,2.64-3.76,7.01-7.97,13.54-7.97,.56,0,.9,.4,.9,.86s-.35,.86-.9,.86c-4.3,0-7.57,1.98-9.86,4.42-2.43,2.64-4.1,5.93-5,7.97-.55,1.45-.83,2.24-.83,2.24v15.09c0,.53-.28,.86-.83,.86-.42,0-.83-.33-.83-.86v-15.09Z"/><path class="cls-1" d="M464.53,485.3c0,.46-.42,.79-.9,.79h-5.55v25.7c0,1.84,1.6,3.36,3.54,3.36,.49,0,.9,.33,.9,.79s-.42,.86-.9,.86c-2.92,0-5.28-2.24-5.28-5.01v-25.7h-5.83c-.49,0-.9-.33-.9-.79s.42-.86,.9-.86h5.83v-12.92c0-.46,.35-.86,.83-.86s.9,.4,.9,.86v12.92h5.55c.49,0,.9,.4,.9,.86Z"/><path class="cls-1" d="M475.71,500.59c.14-8.96,7.43-16.15,16.52-16.15s15.69,6.52,16.31,14.89v.26c-.07,.4-.42,.79-.83,.79h-30.26v.2c0,7.91,6.59,14.43,14.79,14.5,5.14,0,9.65-2.64,12.22-6.59,.28-.39,.76-.39,1.25-.2,.35,.2,.49,.72,.21,1.12-2.92,4.28-7.98,7.32-13.67,7.32-9.09-.13-16.38-7.32-16.52-16.15Zm1.8-1.78h29.29c-.9-7.18-7.15-12.65-14.58-12.65s-13.81,5.47-14.71,12.65Z"/><path class="cls-1" d="M517.77,511.07c.28-.46,.83-.53,1.25-.13,2.5,1.91,6.73,4.15,11.24,4.15,2.99,0,5.55-.86,7.5-2.17s3.05-3.1,3.05-5.01c-.07-1.84-.97-3.29-2.85-4.55-1.94-1.19-4.58-2.04-7.84-2.64h-.21c-3.12-.46-5.9-1.25-7.91-2.64-2.01-1.25-3.4-3.16-3.4-5.47,.07-4.68,5.34-8.17,11.59-8.17,4.3,0,7.64,2.04,10.27,3.76,.42,.26,.49,.79,.28,1.12-.28,.4-.83,.53-1.25,.26-2.64-1.65-5.55-3.49-9.3-3.49-2.85,0-5.34,.79-7.08,2.04s-2.71,2.77-2.71,4.48,.83,2.97,2.57,4.09,4.3,1.91,7.36,2.5h.07c3.4,.66,6.32,1.38,8.54,2.77,2.15,1.38,3.61,3.43,3.61,5.93-.07,5.07-5.69,8.83-12.29,8.83-5.14,0-9.65-2.5-12.36-4.61-.42-.26-.42-.72-.14-1.05Z"/><path class="cls-1" d="M582.95,485.3v30.58c0,.53-.35,.86-.83,.86-.55,0-.9-.33-.9-.86v-8.04c-2.64,5.27-8.05,8.9-14.3,8.9-8.88,0-16.03-7.32-16.03-16.15s7.15-16.15,16.03-16.15c6.25,0,11.66,3.69,14.3,8.9v-8.04c0-.4,.35-.86,.9-.86,.49,0,.83,.46,.83,.86Zm-1.74,15.29c0-7.97-6.46-14.43-14.3-14.43s-14.3,6.46-14.3,14.43,6.46,14.5,14.3,14.5,14.3-6.46,14.3-14.5Z"/><path class="cls-1" d="M622.52,497.49c0-6.39-5.41-11.4-11.94-11.4s-12.01,5.01-12.01,11.4v18.39c0,.2-.07,.4-.21,.53-.14,.2-.35,.33-.62,.33h-.28c-.07-.07-.14-.07-.21-.13-.07,0-.14-.07-.21-.13q-.07-.07-.07-.13c-.07-.07-.14-.2-.14-.33v-30.78c0-.53,.42-.79,.9-.79s.83,.26,.83,.79v5.93c2.36-4.02,6.87-6.72,12.01-6.72,7.5,0,13.67,5.8,13.67,13.05v18.39c0,.46-.42,.86-.9,.86-.56,0-.83-.4-.83-.86v-18.39Z"/><path class="cls-1" d="M667.78,485.3v30.58c0,.53-.35,.86-.83,.86-.55,0-.9-.33-.9-.86v-8.04c-2.64,5.27-8.05,8.9-14.3,8.9-8.88,0-16.03-7.32-16.03-16.15s7.15-16.15,16.03-16.15c6.25,0,11.66,3.69,14.3,8.9v-8.04c0-.4,.35-.86,.9-.86,.49,0,.83,.46,.83,.86Zm-1.74,15.29c0-7.97-6.46-14.43-14.3-14.43s-14.3,6.46-14.3,14.43,6.46,14.5,14.3,14.5,14.3-6.46,14.3-14.5Z"/><path class="cls-1" d="M683.81,471.46c0-.46,.35-.86,.9-.86,.49,0,.83,.4,.83,.86v44.42c0,.46-.35,.86-.83,.86-.56,0-.9-.4-.9-.86v-44.42Z"/></g></svg>