<?xml version="1.0" encoding="UTF-8"?><svg id="Capa_1" xmlns="http://www.w3.org/2000/svg" viewBox="0 0 644.9 972.17"><defs><style>.cls-1{fill:#fff;}.cls-2{fill:#362112;}</style></defs><path class="cls-2" d="M322.48,643.78C142.6,643.61,1.69,497.73,.02,325.14-1.71,147.48,143.06-1.15,324.55,0c178.18,1.14,319.62,146.66,320.35,320.48,.74,176.55-143.03,323.28-322.43,323.29Zm-.22-618.74C158.34,25.25,25,158.51,25.15,321.98c.15,163.9,133.41,296.7,297.64,296.64,163.82-.07,297.18-133.43,296.97-297.01-.2-163.6-133.79-296.76-297.51-296.56Z"/><path class="cls-2" d="M13.27,808.9v-121.52c.46-.66,1.08-.55,1.65-.55,15.45,.03,30.89-.07,46.34,.14,9.45,.13,18.73,1.64,27.71,4.76,16.35,5.69,27.01,16.84,31.38,33.49,3.94,15.04,4.07,30.28-.14,45.33-5.83,20.83-19.83,32.95-40.87,37.24-4.86,.99-9.77,1.56-14.74,1.56-16.27,0-32.54,.01-48.81,0-.79,0-1.65,.24-2.51-.46Zm31.19-24.21c7.71-.13,15.25,.35,22.75-.92,12.15-2.06,20.59-8.35,23.52-20.73,2.31-9.77,2.39-19.64,.05-29.39-2.24-9.34-7.85-16.02-17.18-18.95-9.51-2.98-19.33-1.94-29.03-1.95-.44,3.11-.52,67.21-.1,71.94Z"/><path class="cls-2" d="M542.82,809.18v-122.08h90.63v23.41h-59.92v22.25h55.86v23.36h-55.9v29.11h65.32v23.95h-95.99Z"/><path class="cls-2" d="M228.18,686.96h30.29c.84,1.04,.36,2.25,.36,3.36,.03,23.9,.13,47.81,0,71.71-.09,15.96-5.26,29.77-18.27,39.86-7.35,5.7-15.88,8.72-25.02,9.73-15.08,1.66-29.71,.29-42.68-8.5-12.87-8.72-18.43-21.62-18.69-36.55-.46-26.25-.16-52.51-.16-78.77,0-.21,.15-.42,.3-.8h30.25c.86,.89,.46,2,.46,3.01,.02,24.85,0,49.69,0,74.54,0,.35,0,.71,0,1.06,.09,15.48,5.93,21.26,21.45,21.21,1.65,0,3.3-.06,4.95-.19,9.17-.75,14.96-6.23,16.22-15.24,.39-2.8,.56-5.61,.55-8.44-.03-25.2-.02-50.39-.02-75.98Z"/><path class="cls-2" d="M512.03,714.78c-8.09,4.05-15.95,7.98-24.1,12.06-1.93-4.59-4.48-8.58-8.24-11.7-14.58-12.11-34.38-8.42-42.9,8.72-8.03,16.14-7.84,32.94,.57,48.85,10.02,18.95,35.05,19.88,47.25,2.28,1.2-1.73,2.29-3.53,3.75-5.79,3.88,1.99,7.8,4.01,11.72,6.01,3.97,2.02,7.95,4.03,12.26,6.2-2.44,4.94-5.83,9.07-9.43,13.02-22.91,25.15-64.57,24.92-86.95-.59-8.82-10.05-13.1-22.16-14.56-35.28-1.93-17.31,.66-33.72,10.01-48.78,22.68-36.52,78.14-35.38,99.21,2.08,.46,.81,.82,1.67,1.42,2.92Z"/><path class="cls-2" d="M466.79,919.65h-40.89v-13.04h54.91v62.17h-13.83v-15.81c-8.61,11.09-19.7,16.3-32.53,18.29-39.48,6.13-69.55-19.45-69.77-59.43-.1-18.86,4.93-35.88,19.29-49,13.6-12.43,30.08-16.58,48.08-15.08,15.08,1.25,28.27,6.84,38.6,18.28,4.14,4.58,7.39,9.71,10.14,15.83-5.5,1.43-10.84,2.82-16.33,4.25-4.75-13.58-14.18-21.76-27.92-24.44-14.41-2.8-27.97-.73-39.35,9.44-6.98,6.23-11.02,14.26-13.24,23.23-2.95,11.93-2.52,23.78,1.32,35.47,6.86,20.89,26.25,30.55,46.65,28.14,11.95-1.41,22.22-6.19,29.19-16.41,4.41-6.47,6.4-13.71,5.69-21.9Z"/><path class="cls-2" d="M120.02,850.28c20.56,.5,40.77-1.05,60.86,.76,22.38,2.01,32.45,17.3,30.72,38.07-1.39,16.68-11.23,25.58-27.64,28.62,11.07,17.11,21.95,33.92,33.19,51.28-6.33,0-12.14,.03-17.95-.02-1.79-.01-2.01-1.79-2.71-2.88-9.72-14.99-19.38-30.01-29.06-45.03-.74-1.14-1.16-2.43-3.05-2.41-9.53,.1-19.06,.05-29.01,.05v50.2h-15.35v-118.65Zm15.47,55.12c14-.21,27.89,.55,41.76-.42,5.81-.41,11.36-2.36,15.13-7.32,9.13-12.01,2.14-30.28-12.63-33.3-5.85-1.2-11.75-.65-17.63-.72-8.82-.1-17.63-.03-26.62-.03v41.79Z"/><path class="cls-2" d="M575.31,971.79c-32.25,.52-55.51-20.24-59.04-52.38-1.45-13.2-.54-26.17,4.76-38.41,8.45-19.52,24.05-29.79,44.73-32.84,12.38-1.82,24.51-.57,35.99,4.52,16.75,7.43,26.97,20.58,31.35,38.09,4.21,16.85,2.87,33.47-4.52,49.27-9.19,19.66-25.16,29.77-46.55,31.72-2.22,.2-4.48,.03-6.72,.03Zm-42.54-60.57c.16,1.96,.3,5.25,.72,8.52,2.68,20.99,14.68,37.52,37.57,39.7,18.78,1.79,36.15-6.37,43.26-26.51,3.8-10.76,4.59-21.83,3.26-33.05-2.49-20.98-14.07-37.45-37.1-39.44-18.06-1.56-33.7,4.81-41.9,21.7-4.24,8.72-5.67,18.12-5.8,29.09Z"/><path class="cls-2" d="M375.17,809.18h-78.21v-122.19h30.33v96.55h47.88v25.63Z"/><path class="cls-2" d="M339.29,969.05c-4.85,0-9.76-.03-14.68,.02-1.85,.02-1.89-1.39-2.32-2.57-3.71-10.38-7.42-20.77-11.14-31.15-.28-.77-.59-1.53-.98-2.51-12,0-24.02,0-36.04,0q-9.29,0-12.44,8.85c-2.93,8.17-5.96,16.3-8.8,24.49-.78,2.25-1.92,3.05-4.33,2.92-4.34-.23-8.7-.06-13.55-.06,1.4-3.88,2.64-7.47,4-11.03,13.33-34.85,26.7-69.68,39.97-104.56,.89-2.35,1.96-3.39,4.52-3.12,2.22,.23,4.48,.06,6.72,.05q6.4,0,8.51,5.83c13.27,36.38,26.55,72.75,39.78,109.14,.39,1.06,1.16,2.09,.77,3.69Zm-33.8-49.59c-5.74-16.44-11.38-32.56-17.3-49.5-6.2,16.96-12.11,33.1-18.11,49.5h35.4Z"/><path class="cls-2" d="M3.28,850.61c5.85-.49,83.47-.32,86.66,.2v13.35H54.57v104.7h-15.8v-104.52H3.28v-13.72Z"/><path class="cls-1" d="M322.26,25.05c163.72-.2,297.31,132.96,297.51,296.56,.2,163.58-133.15,296.95-296.97,297.01-164.24,.07-297.49-132.74-297.64-296.64C25,158.51,158.34,25.25,322.26,25.05Zm.02,576.98c158.66-.32,284.46-130.92,280.63-287.15-3.69-150.47-128.14-275.33-284.72-272.99C161.76,44.22,38.68,173.58,42.01,328c3.25,150.77,126.88,273.65,280.27,274.03Z"/><path class="cls-2" d="M322.28,602.02c-153.39-.37-277.02-123.26-280.27-274.03C38.68,173.58,161.76,44.22,318.19,41.88c156.59-2.34,281.04,122.52,284.72,272.99,3.83,156.23-121.97,286.84-280.63,287.15Zm119.23-307.44c0-1.6,0-2.86,0-4.13,0-15.67,.03-31.33-.02-47-.02-6.51-3.82-10.24-10.36-10.24-80.7-.01-161.41-.01-242.11,0-6.9,0-10.34,3.53-10.34,10.43,0,85.51-.01,171.03,0,256.54,0,2.11,.09,4.26,.49,6.32,5.14,26.96,26.84,45.1,54.34,45.15,50.97,.09,101.94,.03,152.91,.01,4.49,0,8.97-.39,13.32-1.47,25.03-6.21,41.64-27.35,41.74-53.17,.07-17.79,0-35.57,.04-53.36,0-1.25-.38-2.57,.65-4.19,21.54,1.76,41.5-2.92,58.22-17.66,16.67-14.69,25.24-33.33,25.02-55.47-.42-43.21-38.83-77.45-83.91-71.78ZM306.93,92.01c-.2,4.31-2.24,7.67-4.8,10.85-7.16,8.89-9.56,18.95-7.22,30.11,1.24,5.91,4.52,10.74,8.07,15.48,5.27,7.05,5.21,13.22,.09,20.36-1.71,2.39-3.53,4.74-4.94,7.3-2.72,4.96-4.36,10.23-3.9,15.96h18.98c-.26-4.43,1.95-7.72,4.4-10.93,3.01-3.94,5.72-8.06,6.99-12.94,3.15-12.04,.5-22.73-7.24-32.41-5.38-6.72-5.72-13.26-1.43-19.45,1.27-1.84,2.68-3.58,3.95-5.42,3.87-5.65,5.94-11.86,5.97-18.92h-18.92Zm-84.89-.05c-.1,4.41-2.3,7.81-4.88,11.07-5.11,6.47-7.98,13.7-7.99,22.09,0,8.93,3.46,16.38,8.85,23.23,5.33,6.79,5.37,13.18,.44,20.05-1.71,2.39-3.5,4.74-4.98,7.27-2.94,5.03-4.4,10.47-4.22,16.35h18.89c.62-5.26,.57-5.3,6.16-13,5.85-8.06,7.8-16.93,6.12-26.71-1.01-5.85-3.68-10.86-7.2-15.52-6.84-9.07-6.8-14.26,0-23.47,1.47-1.98,2.9-4.03,4.05-6.19,2.5-4.69,3.79-9.71,3.66-15.18h-18.91Zm176.1,100.14c-.47-5.59,2.97-9.08,5.73-12.83,5.49-7.46,7.61-15.7,6.59-24.9-.78-7.06-3.98-12.91-8.16-18.43-5.98-7.89-5.91-13.73,.03-21.74,1.54-2.07,3.04-4.19,4.31-6.43,2.76-4.84,4.09-10.07,3.98-15.8h-18.87c-.12,4.56-2.43,8.05-5.12,11.39-7.1,8.85-9.08,18.89-6.8,29.86,1.31,6.28,5.08,11.25,8.73,16.31,4.31,5.97,4.2,12.24,0,18.29-1.94,2.8-4.04,5.52-5.7,8.48-2.71,4.85-4.22,10.06-3.69,15.8h18.95Z"/><path class="cls-1" d="M441.51,294.58c45.08-5.67,83.49,28.57,83.91,71.78,.22,22.14-8.35,40.78-25.02,55.47-16.72,14.73-36.68,19.42-58.22,17.66-1.03,1.62-.64,2.94-.65,4.19-.03,17.79,.03,35.57-.04,53.36-.1,25.82-16.71,46.96-41.74,53.17-4.35,1.08-8.83,1.47-13.32,1.47-50.97,.02-101.94,.08-152.91-.01-27.51-.05-49.21-18.19-54.34-45.15-.39-2.06-.49-4.21-.49-6.32-.02-85.51-.02-171.03,0-256.54,0-6.9,3.45-10.43,10.34-10.43,80.7-.02,161.41-.02,242.11,0,6.54,0,10.34,3.74,10.36,10.24,.05,15.67,.02,31.33,.02,47,0,1.27,0,2.53,0,4.13Zm-243.9-42.18c-.08,.76-.17,1.22-.17,1.67,0,80.92-.05,161.84,.05,242.76,.03,20.73,15.35,35.74,36.1,35.76,50.5,.04,101,.02,151.49-.02,3.05,0,6.17-.13,9.14-.74,17.19-3.49,28.2-17.55,28.21-35.89,.01-80.1,0-160.19,0-240.29v-3.26H197.61Zm244.04,167.94c24.55,2.34,44.83-4.78,57.43-26.59,11.11-19.23,10.03-38.93-2.58-57.2-13.17-19.07-32.45-24.75-54.85-22.55v106.33Z"/><path class="cls-1" d="M306.93,92.01h18.92c-.03,7.06-2.11,13.27-5.97,18.92-1.26,1.84-2.67,3.59-3.95,5.42-4.29,6.19-3.94,12.73,1.43,19.45,7.74,9.68,10.39,20.37,7.24,32.41-1.28,4.88-3.98,9-6.99,12.94-2.45,3.21-4.66,6.5-4.4,10.93h-18.98c-.46-5.73,1.18-11.01,3.9-15.96,1.41-2.57,3.23-4.91,4.94-7.3,5.12-7.14,5.18-13.31-.09-20.36-3.54-4.74-6.83-9.58-8.07-15.48-2.34-11.16,.06-21.22,7.22-30.11,2.56-3.17,4.6-6.54,4.8-10.85Z"/><path class="cls-1" d="M222.04,91.96h18.91c.13,5.47-1.16,10.48-3.66,15.18-1.15,2.17-2.59,4.21-4.05,6.19-6.8,9.21-6.84,14.4,0,23.47,3.52,4.66,6.19,9.67,7.2,15.52,1.69,9.78-.27,18.65-6.12,26.71-5.59,7.7-5.54,7.74-6.16,13h-18.89c-.18-5.88,1.28-11.32,4.22-16.35,1.48-2.53,3.27-4.88,4.98-7.27,4.92-6.88,4.89-13.27-.44-20.05-5.39-6.86-8.85-14.3-8.85-23.23,0-8.39,2.88-15.62,7.99-22.09,2.58-3.26,4.77-6.66,4.88-11.07Z"/><path class="cls-1" d="M398.13,192.1h-18.95c-.53-5.74,.98-10.95,3.69-15.8,1.66-2.96,3.76-5.68,5.7-8.48,4.19-6.04,4.3-12.32,0-18.29-3.65-5.06-7.43-10.03-8.73-16.31-2.28-10.98-.3-21.02,6.8-29.86,2.68-3.35,5-6.84,5.12-11.39h18.87c.1,5.72-1.22,10.95-3.98,15.8-1.28,2.24-2.78,4.36-4.31,6.43-5.94,8.01-6.01,13.85-.03,21.74,4.18,5.52,7.38,11.37,8.16,18.43,1.02,9.21-1.1,17.45-6.59,24.9-2.76,3.75-6.21,7.25-5.73,12.83Z"/><path class="cls-2" d="M197.61,252.4h224.83v3.26c0,80.1,0,160.19,0,240.29,0,18.34-11.01,32.39-28.21,35.89-2.98,.6-6.09,.73-9.14,.74-50.5,.05-101,.06-151.49,.02-20.75-.02-36.08-15.03-36.1-35.76-.1-80.92-.05-161.84-.05-242.76,0-.46,.09-.91,.17-1.67Zm185.8,30.05v204.81h17.31v-204.81h-17.31Zm-152.87,137.97c8.64,0,16.9,.26,25.14-.06,14.18-.55,23.05-8.08,25.44-21.37,.96-5.35,.81-10.77-.33-16.14-1.96-9.27-7.49-15.21-16.58-17.8-11.08-3.16-22.39-1.32-33.67-1.83v57.19Zm133.86-56.95h-43.78v11.13h14.64v45.66h14.55v-45.79h14.6v-11Zm-56.37,56.86v-13.1h-12.27v13.1h12.27Z"/><path class="cls-2" d="M441.65,420.34v-106.33c22.41-2.2,41.69,3.47,54.85,22.55,12.61,18.27,13.69,37.97,2.58,57.2-12.61,21.81-32.88,28.92-57.43,26.59Z"/><path class="cls-1" d="M383.41,282.45h17.31v204.81h-17.31v-204.81Z"/><path class="cls-1" d="M230.54,420.42v-57.19c11.28,.5,22.59-1.33,33.67,1.83,9.08,2.59,14.62,8.53,16.58,17.8,1.13,5.37,1.29,10.78,.33,16.14-2.39,13.29-11.27,20.82-25.44,21.37-8.24,.32-16.5,.06-25.14,.06Zm14.52-45.15v33.9c7.15-.63,14.94,1.07,19.46-6.03,4.34-6.81,4.21-14.64,.5-21.58-4.24-7.93-12.45-6-19.96-6.29Z"/><path class="cls-1" d="M364.41,363.47v11h-14.6v45.79h-14.55v-45.66h-14.64v-11.13h43.78Z"/><path class="cls-1" d="M308.03,420.34h-12.27v-13.1h12.27v13.1Z"/><path class="cls-2" d="M245.07,375.28c7.51,.29,15.72-1.65,19.96,6.29,3.71,6.94,3.83,14.77-.5,21.58-4.52,7.1-12.31,5.4-19.46,6.03v-33.9Z"/></svg>