<?xml version="1.0" encoding="UTF-8"?><svg id="Capa_1" xmlns="http://www.w3.org/2000/svg" viewBox="0 0 1064.21 410.64"><defs><style>.cls-1{fill:#161216;}.cls-2{fill:#cb7330;}.cls-3{fill:#ebe6e9;}.cls-4{fill:#ad7252;}</style></defs><path class="cls-3" d="M.07,206.33c0-44.12-.19-88.25,.08-132.37C.29,49.99,7.21,28.68,26.57,13.93,42.99,1.42,62.04-.35,81.58,1.9c19.1,2.2,37.6,7.75,56.43,11.52,44.23,8.86,88.53,17.22,133.03,24.48,40.07,6.53,80.3,11.78,120.65,15.72,39.55,3.86,79.26,6.04,119.01,3.68,34.48-2.05,69.04-1.63,103.5-3.71,43.46-2.62,86.91-5.37,130.23-10.14,54.3-5.97,108.36-13.55,161.98-24.34,25.14-5.06,50.05-11.24,74.94-17.54,23.42-5.93,64.8,4.09,77.63,44.58,3.83,12.08,5.26,24.41,5.25,37.09-.09,82.62-.02,165.23-.03,247.85,0,16.7-3.6,32.54-11.66,47-12.27,22.01-31.57,31.42-55.31,32.47-19.51,.86-37.95-5.11-56.62-9.53-33.85-8.01-67.92-14.54-102.36-19.29-30.81-4.25-61.61-8.54-92.59-11.12-37.18-3.09-74.37-5.85-111.64-7.59-41.65-1.95-83.32-2.53-124.99-2.96-42.36-.44-84.67,1.65-126.88,4.96-47.97,3.77-95.94,7.99-143.53,15.56-50.06,7.97-99.98,16.9-149.7,26.98-14.8,3-29.71,3.35-44.26-.89-26.17-7.63-41.2-28.24-43.95-59.24-.4-4.48-.59-8.99-.6-13.48-.04-42.55-.03-85.09-.03-127.64Zm1054.34-1.1h-.38c0-10.36,.02-20.71,0-31.06-.06-35.11,1.22-70.3-.55-105.32-2.24-44.41-36.6-64.94-70.9-57.06-44.83,10.3-89.6,20.39-134.95,27.97-53.25,8.89-106.82,14.57-160.5,19.14-36.74,3.13-73.58,5.36-110.46,5.9-47.02,.69-93.97,5.24-141.07,1.99-26.26-1.81-52.48-3.95-78.63-6.89-35.39-3.97-70.61-9.35-105.77-15.16-40.66-6.72-81.1-14.66-121.51-22.83-17.13-3.46-33.94-8.81-51.41-10.29-15.02-1.27-29.91-.45-43.03,8.44-18.31,12.4-25.4,31.28-25.46,52.99-.26,87.56-.11,175.13-.07,262.69,0,4.04,.29,8.1,.7,12.12,3.32,32.46,23.92,51.53,55.16,52.04,12.06,.2,23.51-2.83,35.12-5.02,47.74-9.01,95.46-18.12,143.51-25.16,67.79-9.93,136-15.29,204.36-18.47,51.81-2.41,103.62-.55,155.43,.74,39.27,.98,78.48,3.35,117.63,6.36,45.82,3.53,91.52,8.66,136.94,16.14,28.09,4.63,56.13,9.57,83.81,16.49,18.02,4.51,35.87,10.46,54.73,9.53,14.33-.7,27.52-4.61,38.1-15.67,14.38-15.02,19.01-33.78,19.13-54.04,.26-41.86,.08-83.72,.08-125.58Z"/><path class="cls-1" d="M1054.89,205.23c0,41.86,.18,83.72-.08,125.58-.12,20.26-4.76,39.02-19.13,54.04-10.59,11.06-23.78,14.97-38.1,15.67-18.86,.92-36.71-5.03-54.73-9.53-27.68-6.93-55.72-11.86-83.81-16.49-45.41-7.48-91.12-12.61-136.94-16.14-39.14-3.01-78.35-5.38-117.63-6.36-51.81-1.29-103.62-3.15-155.43-.74-68.36,3.18-136.57,8.54-204.36,18.47-48.04,7.04-95.77,16.15-143.51,25.16-11.62,2.19-23.06,5.22-35.12,5.02-31.24-.51-51.84-19.59-55.16-52.04-.41-4.02-.7-8.08-.7-12.12-.04-87.57-.19-175.13,.07-262.69,.06-21.72,7.15-40.59,25.46-52.99,13.12-8.88,28.02-9.71,43.03-8.44,17.47,1.48,34.28,6.83,51.41,10.29,40.41,8.17,80.85,16.11,121.51,22.83,35.16,5.81,70.38,11.19,105.77,15.16,26.15,2.94,52.37,5.08,78.63,6.89,47.1,3.25,94.05-1.3,141.07-1.99,36.88-.54,73.72-2.77,110.46-5.9,53.68-4.57,107.25-10.25,160.5-19.14,45.35-7.58,90.12-17.67,134.95-27.97,34.3-7.88,68.66,12.64,70.9,57.06,1.77,35.02,.49,70.2,.55,105.32,.02,10.35,0,20.71,0,31.06h.38Zm-678.87-26.07c-.25,47.9,35.79,86.72,81.09,86.78,47.19,.07,83.05-37.96,83.57-85.58,.51-47.09-36.63-85.46-82.24-85.82-45.17-.36-82.17,37.63-82.41,84.62Zm-17.3-80.46c-.52-.42-1.04-.84-1.56-1.25-25.26,26.45-50.51,52.9-76.07,79.67-24.41-26.26-48.81-52.5-73.82-79.41v164.98c7.68,.17,14.74,.64,22.35-.47v-104.66c18.39,19.91,35.72,38.68,53.78,58.24,18.67-19.03,36.91-37.62,55.36-56.42v103.18h19.97V98.69Zm426.34-2.96c-2.29,1.1-2.69,3.17-3.46,4.89-12.89,28.84-25.81,57.67-38.55,86.59-1.47,3.34-3.09,4.71-6.72,4.48-5.95-.38-11.95-.1-18.22-.1v23.65c2.94,2.67,6.81-.48,9.62,2.81-6.29,14.51-12.6,29.07-19.43,44.83,6.82,0,12.59-.36,18.3,.11,4.64,.38,6.96-1.43,8.73-5.77,5.23-12.79,10.88-25.39,16.28-38.1,1.12-2.64,2.23-4.29,5.59-4.25,19.22,.22,38.45,.1,57.96,.1,7.33,15.94,14.63,31.83,21.75,47.3h26.18c-26.25-56.03-52.07-111.14-78.03-166.55Zm-239.21-1.21c1.26,2.93,1.98,5,2.99,6.91,18.99,35.68,37.97,71.37,57.08,106.98,3,5.6,5,11.15,4.81,17.75-.35,12.04-.1,24.11-.1,36.28h26.39c0-10.33,0-20.18,0-30.03,0-6.88-1.36-13.81,2.23-20.39,17.1-31.4,34.07-62.87,51.05-94.33,3.95-7.31,7.76-14.7,12.2-23.12-7.51,0-13.73,.4-19.87-.13-4.89-.42-7.47,1.66-9.73,5.81-11.82,21.64-23.81,43.18-35.77,64.73-4.57,8.22-9.24,16.38-14.38,25.48-1.44-2.58-2.28-4.05-3.1-5.55-15.62-28.65-31.23-57.31-46.88-85.95-1.02-1.86-1.52-4.44-4.31-4.45-7.26-.02-14.52,0-22.6,0ZM228.67,316.24v-.03c13.6,0,27.21,.07,40.81-.03,6.28-.05,10.21-3.53,10.13-8.58-.08-5.18-4.06-9.01-9.97-9.03-27.42-.08-54.84-.07-82.27,0-5.49,.01-9.25,3.73-9.43,8.83-.17,4.78,3.93,8.8,9.27,8.82,13.82,.06,27.64,.02,41.46,.02Zm611.89,0v-.06c14.24,0,28.47,0,42.71,0,2.59,0,5.24,.25,7.11-2.24,2.05-2.73,3.74-5.42,2.15-9.2-1.75-4.15-4.39-6.27-8.91-6.26-28.69,.06-57.38-.05-86.07-.01-5.92,0-10.18,3.84-10.28,8.82-.11,5.48,3.82,8.9,10.58,8.93,14.24,.06,28.47,.02,42.71,.02Zm-252.13-22.12c-12.85-1.6-17.58-1.12-20.13,1.95,4.36,2.07,9.3-.45,13.95,1.8-5.47,9.12-10.69,17.84-16.56,27.63,8.45-.78,15.5-.69,22.44-.77,5.47-.06,6.46-1.75,7.38-5.89,.45-2.04,1.7-2.89,3.77-2.79,2.78,.13,5.58,.03,7.66,.03,3.17,2.79,1.99,7.84,5.89,9.34,1.89-1.16,1.66-2.35,1.17-3.74-2.82-7.96-5.53-15.97-8.4-23.91-.63-1.75-.79-4.28-3.55-4.04-2.55,.22-2.65,2.57-3.33,4.4-3.16,8.52-5.28,17.46-9.38,25.83-4.97-4.42-11.06-.71-16.61-3.4,5.22-8.78,10.23-17.21,15.71-26.45Zm106.07,.11c1.98,2.12,4.39,2.38,4.22,4.43-.68,8.63,2.39,17.63-3.03,26.53,3.48-.07,6.14,.66,8.74-.6-3.25-10.28-2.05-20.4-.68-30.72-4.03-1.97-8.17,1.83-12.43-.71-2.91,8.62-5.65,16.74-8.8,26.06-4.03-9.22-4.63-18.71-10.88-25.34,1.78,9.53,4.69,18.53,7.73,27.48,.53,1.57,.83,3.83,3.05,3.83,2.49,0,2.82-2.2,3.44-4.16,2.72-8.63,5.54-17.23,8.64-26.8Zm-312.77-.04c-2.9-1.03-5.61-1.34-8.13-.03-.79,2.85,2.42,2.5,2.37,4.65-.13,6.73,.05,13.47-.08,20.2-.05,2.61-3.53,4.58-4.05,4.09-3.52-3.33-7.47-.63-11.07-1.48-3.62-.86-6.06-2.7-7.21-6.64-3.54-12.12,2.9-20.04,14.78-17.99,.46,.08,1.02-.48,1.57-.76-3.16-4.38-10.04-4.56-15.09-.58-6.38,5.02-8.03,17.62-3.21,24.48,4.57,6.51,12.97,7.42,20.43,2.21,3.25,3.7,4.98,3.94,10.02,1.38-3.81-5.21-4.11-23.02-.32-29.53Zm266.92,18.98c-2.78-3.01-6.59-4.91-3.01-10.01,1.97-2.8,.8-6.32-1.4-8.61-2.6-2.7-5.98-2.13-9.02-.54-3.19,1.68-3.98,4.92-2.94,8.02,1.07,3.2,.36,5.19-1.42,7.85-2.53,3.78-3.58,8.23-.26,12.42,3.24,4.1,7.63,4.27,11.74,2.55,3.77-1.58,6.88-3.1,10.61,.14,1.82,1.59,4.01,.89,5.18-2.61-7.65-.62-6.9-4.92-4.66-10.29,1.55-3.71,2.96-7.76-.24-12.35-3.08,4.2-.55,9.61-4.58,13.43Zm-260.62-21.14c-2.63,12.62-1.64,30.34,2.27,33.79v-24.91c7.63,7.85,9.37,19.07,18.46,25.23v-32.67l-1.76-.04c-2.68,7.14-.03,15.06-1.78,23.21-6.6-7.75-8.76-17.92-17.18-24.61Zm340.48,24.77c-7.54-7.27-8.18-19.19-18.59-24.07v32.36c.64,.06,1.27,.12,1.91,.18,3.32-7.36-.3-15.94,2.2-23.91,6.44,7.9,8.9,18.33,17.43,23.97,.41-11.04,2.06-21.53-.76-31.91-2.97,7.32-.91,15.15-2.19,23.37Zm-383.31-7.44c-.01-10.57-4.67-16.49-13.01-16.53-8.37-.03-14.1,6.71-14.13,16.65-.04,9.65,5.46,16.09,13.72,16.08,8.44,0,13.43-6.03,13.42-16.21Zm419.76-.29c0-10.02-4.73-16.08-12.68-16.26-9.17-.2-14.17,6.03-14.07,17.57,.08,9.1,5.22,15.15,12.93,15.22,8.58,.07,13.82-6.19,13.81-16.53Zm-264.55,16.23c.65-.05,1.29-.1,1.94-.15,1.98-4.15-.56-9.2,1.62-13.16,5.37-.94,6.56,3.1,8.36,6.34q3.5,6.28,7.45,5.83c-2.61-4.69-5.15-9.26-7.66-13.76,4.85-4.48,6.12-8.75,3.98-12.91-2.18-4.24-8.69-5.39-15.71-3.08v30.87Zm-85.33,.77c5.09-2.75,3.35-10.32,11.4-10.63,8.33-.32,5.77,9.24,12.82,10.29-3.74-10.9-6.84-20.78-10.58-30.39-1.31-3.35-3.73-2.36-4.9,.79-2.09,5.61-4.36,11.17-6.04,16.91-1.14,3.9-3.87,7.5-2.69,13.03Zm137.75-5.26c-.3-3.25-.75-6.52,.34-9.27,3.17-2.4,7.24,.85,9.85-2.69-3.1-3.2-6.89-.13-10.14-1.98v-9.19c3.25-2.56,7.69,1.08,11.7-2.95-5.4-2.07-10.05-1.37-14.96-.89v31.24c5.28,.27,10.16,.95,15.74-.95-4.1-4.37-8.44-1.05-12.52-3.33Zm-73.18,4.64c5.35-.67,9.99,.76,15.06-1.22-3.45-4.97-8.7-.48-11.12-2.94-4.94-11.55,3.56-10.63,10.48-11.46-3.91-3.71-7.86-.56-10.2-2.73-2.73-2.52-1.05-6.22-1.11-9.25,3.5-2.51,8.15,.89,11.89-3.42-5.52-1.53-10.18-1.07-15.01-.47v31.48Zm42.88-31.92c.8,10.55,4.76,20.12,7.94,29.89,.9,2.75,3.89,2.84,4.75,.02,3-9.83,7.4-19.23,8.28-29.87-5.6,6.9-5.97,16.45-10.74,24.56-4.06-8.52-4.71-17.6-10.23-24.59Zm-207.12,28.26c-15.82-.83-18.01-2.25-18.51-11.22-.22-3.98,.75-7.47,3.14-10.65,3.96-5.27,9.5-3.19,14.89-3.04-3.46-5.3-10.45-5.35-16.34-.7-5.8,4.59-7.13,18.56-2.33,24.62,4.62,5.84,13.33,6.57,19.15,.98Zm158.21-24.82c-1.91-3.88-5.35-5.04-10.2-3.9-6.43,1.52-10.96,8.15-11.12,16.27-.16,8.11,3.36,14.52,9.55,15.71,3.93,.76,8.74,2.31,12.16-3.13-15.64-1.13-18.58-3.56-17.82-14.15,.63-8.76,5.92-12.2,17.42-10.8Z"/><path class="cls-3" d="M375.53,179.15c.24-46.99,37.24-84.98,82.41-84.62,45.61,.36,82.75,38.73,82.24,85.82-.51,47.62-36.37,85.65-83.57,85.58-45.29-.06-81.33-38.88-81.09-86.78Zm139.98,1.54c.33-33.02-25.17-60.27-56.74-60.63-32.11-.37-58.42,25.78-58.78,58.41-.37,33.91,24.83,61.53,56.39,61.8,32.66,.28,58.79-26.05,59.13-59.59Z"/><path class="cls-3" d="M358.24,98.69v163.86h-19.97v-103.18c-18.45,18.81-36.69,37.39-55.36,56.42-18.07-19.56-35.39-38.33-53.78-58.24v104.66c-7.61,1.11-14.67,.64-22.35,.47V97.69c25.02,26.91,49.41,53.15,73.82,79.41,25.56-26.77,50.82-53.22,76.07-79.67,.52,.42,1.04,.84,1.56,1.25Z"/><path class="cls-3" d="M784.57,95.73c25.96,55.41,51.78,110.52,78.03,166.55h-26.18c-7.11-15.48-14.42-31.37-21.75-47.3-19.51,0-38.73,.11-57.96-.1-3.35-.04-4.47,1.61-5.59,4.25-5.4,12.71-11.05,25.31-16.28,38.1-1.78,4.34-4.09,6.15-8.73,5.77-5.71-.47-11.48-.11-18.3-.11,6.83-15.76,13.14-30.33,19.43-44.83-2.8-3.29-6.68-.14-9.62-2.81v-23.65c6.27,0,12.26-.27,18.22,.1,3.63,.23,5.25-1.13,6.72-4.48,12.74-28.92,25.66-57.74,38.55-86.59,.77-1.72,1.17-3.79,3.46-4.89Zm-19.84,95.73h37.84c-6.37-15.22-12.44-29.73-19-45.39-6.58,15.85-12.54,30.21-18.84,45.39Z"/><path class="cls-3" d="M545.37,94.52c8.08,0,15.34-.01,22.6,0,2.8,0,3.3,2.59,4.31,4.45,15.65,28.64,31.26,57.3,46.88,85.95,.81,1.49,1.66,2.97,3.1,5.55,5.14-9.1,9.81-17.26,14.38-25.48,11.97-21.55,23.96-43.09,35.77-64.73,2.27-4.15,4.84-6.23,9.73-5.81,6.15,.53,12.37,.13,19.87,.13-4.43,8.41-8.25,15.8-12.2,23.12-16.98,31.47-33.95,62.94-51.05,94.33-3.58,6.58-2.23,13.51-2.23,20.39,0,9.85,0,19.7,0,30.03h-26.39c0-12.17-.25-24.24,.1-36.28,.19-6.6-1.81-12.16-4.81-17.75-19.11-35.61-38.09-71.3-57.08-106.98-1.01-1.9-1.73-3.98-2.99-6.91Z"/><path class="cls-4" d="M228.19,316.24c-13.82,0-27.64,.04-41.46-.02-5.34-.02-9.44-4.04-9.27-8.82,.18-5.1,3.94-8.82,9.43-8.83,27.42-.07,54.84-.08,82.27,0,5.9,.02,9.88,3.85,9.97,9.03,.08,5.05-3.84,8.53-10.13,8.58-13.6,.1-27.21,.03-40.81,.03v.03Zm-.84-3.02c13.38,0,26.75-.09,40.13,.05,4.28,.04,7.53-1.29,7.41-6.11-.11-4.55-3.8-4.69-7.17-4.69-26.53,0-53.07,.05-79.6-.03-3.67-.01-6.16,.36-6.21,5.28-.05,5.32,2.73,5.61,6.61,5.57,12.94-.13,25.89-.05,38.83-.06Z"/><path class="cls-4" d="M840.08,316.25c-14.24,0-28.47,.04-42.71-.02-6.76-.03-10.69-3.45-10.58-8.93,.1-4.98,4.36-8.81,10.28-8.82,28.69-.03,57.38,.07,86.07,.01,4.52,0,7.16,2.12,8.91,6.26,1.59,3.78-.1,6.47-2.15,9.2-1.87,2.49-4.51,2.24-7.11,2.24-14.24,0-28.47,0-42.71,0v.06Zm41.4-5.1c4.03-.47,6.69-.85,6.33-4.84-.31-3.48-2.29-3.69-4.88-3.83-21.16-1.14-42.49,2.45-63.53-2.52-8.42-1.99-16.31,2.53-24.63,2.82-4.36,.16-3.62,4.38-2.14,7.22,1.44,2.76,4.21,3.31,7.26,3.3,28.48-.12,56.96-.11,85.44-.12,.61,0,.82-.15,.6-.84l-4.46-1.18Z"/><path d="M587.94,294.14c-5.49,9.24-10.5,17.67-15.71,26.45,5.55,2.69,11.64-1.02,16.61,3.4,4.1-8.37,6.21-17.32,9.38-25.83,.68-1.83,.78-4.18,3.33-4.4,2.76-.24,2.92,2.29,3.55,4.04,2.87,7.94,5.58,15.95,8.4,23.91,.49,1.39,.72,2.57-1.17,3.74-3.9-1.51-2.72-6.55-5.89-9.34-2.09,0-4.88,.1-7.66-.03-2.07-.1-3.32,.75-3.77,2.79-.92,4.14-1.91,5.83-7.38,5.89-6.94,.08-13.98-.01-22.44,.77,5.86-9.78,11.09-18.51,16.56-27.63-4.64-2.25-9.58,.26-13.95-1.8,2.55-3.07,7.28-3.55,20.13-1.95Zm14.05,4.94c-2.49,5.14-4.2,9.06-4.43,13.66,2.9,.57,5.37,.67,8.59-.51-1.27-4-2.5-7.89-4.16-13.15Z"/><path d="M694.01,294.25c-3.1,9.57-5.92,18.17-8.64,26.8-.62,1.96-.95,4.17-3.44,4.16-2.22,0-2.52-2.26-3.05-3.83-3.04-8.95-5.95-17.95-7.73-27.48,6.25,6.63,6.85,16.12,10.88,25.34,3.15-9.32,5.89-17.44,8.8-26.06,4.26,2.54,8.4-1.26,12.43,.71-1.37,10.32-2.57,20.44,.68,30.72-2.6,1.26-5.26,.53-8.74,.6,5.42-8.9,2.35-17.89,3.03-26.53,.16-2.05-2.24-2.31-4.22-4.43Z"/><path d="M381.24,294.21c-3.79,6.51-3.5,24.32,.32,29.53-5.04,2.56-6.77,2.32-10.02-1.38-7.46,5.21-15.85,4.3-20.43-2.21-4.82-6.86-3.16-19.46,3.21-24.48,5.06-3.98,11.93-3.8,15.09,.58-.55,.28-1.11,.84-1.57,.76-11.88-2.04-18.32,5.87-14.78,17.99,1.15,3.94,3.6,5.79,7.21,6.64,3.59,.85,7.55-1.85,11.07,1.48,.52,.49,4-1.48,4.05-4.09,.13-6.73-.05-13.47,.08-20.2,.04-2.15-3.16-1.8-2.37-4.65,2.52-1.31,5.23-1,8.13,.03Z"/><path d="M648.16,313.19c4.03-3.82,1.5-9.23,4.58-13.43,3.2,4.59,1.78,8.65,.24,12.35-2.25,5.38-2.99,9.67,4.66,10.29-1.17,3.5-3.35,4.2-5.18,2.61-3.73-3.24-6.83-1.73-10.61-.14-4.1,1.72-8.49,1.55-11.74-2.55-3.32-4.19-2.27-8.64,.26-12.42,1.78-2.66,2.49-4.65,1.42-7.85-1.04-3.09-.25-6.34,2.94-8.02,3.03-1.59,6.42-2.17,9.02,.54,2.2,2.29,3.37,5.81,1.4,8.61-3.58,5.09,.22,7,3.01,10.01Zm-3.14,5.97c-.24-5.31-3.21-8.31-7.59-9.7-2.48-.79-3.91,1.58-4.87,3.54-1.3,2.64-.95,5.46,1.28,7.35,3.95,3.34,7.58,1.29,11.18-1.19Zm-2.63-18.42c.15-2.67-1.15-4.18-3.21-4.48-2.09-.29-3.81,.8-3.97,3.27-.16,2.42,.74,4.77,3.09,5.15,2.51,.4,3.49-1.97,4.1-3.94Z"/><path d="M387.54,292.05c8.42,6.69,10.58,16.86,17.18,24.61,1.75-8.16-.9-16.07,1.78-23.21l1.76,.04v32.67c-9.08-6.16-10.82-17.37-18.46-25.23v24.91c-3.91-3.45-4.9-21.18-2.27-33.79Z"/><path d="M728.01,316.81c1.28-8.23-.78-16.06,2.19-23.37,2.82,10.38,1.17,20.87,.76,31.91-8.53-5.64-10.99-16.07-17.43-23.97-2.5,7.97,1.12,16.55-2.2,23.91-.64-.06-1.27-.12-1.91-.18v-32.36c10.41,4.88,11.05,16.8,18.59,24.07Z"/><path d="M344.71,309.37c.01,10.17-4.98,16.2-13.42,16.21-8.26,0-13.76-6.43-13.72-16.08,.04-9.94,5.76-16.69,14.13-16.65,8.34,.03,13,5.96,13.01,16.53Zm-3.42-.31c-.02-7.25-4.1-12.88-9.4-12.96-5.63-.08-10.46,5.8-10.55,12.88-.1,7.82,3.78,12.71,10.11,12.74,6.47,.03,9.86-4.34,9.83-12.66Z"/><path d="M764.46,309.08c0,10.34-5.23,16.61-13.81,16.53-7.72-.07-12.85-6.11-12.93-15.22-.1-11.54,4.89-17.78,14.07-17.57,7.95,.18,12.67,6.24,12.68,16.26Zm-3.69,.06c-.04-7.53-3.99-13.02-9.35-12.97-5.85,.06-10.34,5.68-10.37,13-.04,7.81,3.98,12.71,10.34,12.61,6.06-.1,9.43-4.64,9.38-12.64Z"/><path d="M499.91,325.31v-30.87c7.02-2.31,13.53-1.16,15.71,3.08,2.14,4.16,.86,8.43-3.98,12.91,2.51,4.5,5.04,9.07,7.66,13.76q-3.95,.44-7.45-5.83c-1.81-3.24-2.99-7.29-8.36-6.34-2.18,3.96,.35,9-1.62,13.16-.65,.05-1.29,.1-1.94,.15Zm3.16-28.2c-.67,3.74-.74,7.17,.03,10.75,3.19-.11,6.56,1.31,8.69-2.4,1.19-2.08,1.31-4.17-.03-6.22-2.27-3.48-5.49-2.28-8.69-2.13Z"/><path d="M414.58,326.08c-1.18-5.52,1.55-9.13,2.69-13.03,1.68-5.74,3.95-11.3,6.04-16.91,1.17-3.14,3.59-4.13,4.9-.79,3.75,9.61,6.85,19.49,10.58,30.39-7.04-1.05-4.49-10.61-12.82-10.29-8.04,.31-6.3,7.87-11.4,10.63Zm7.22-13.06c3.11-.02,5.62,.7,8.48-.86-1.29-3.87-2.56-7.66-4.38-13.08-1.85,5.6-4.07,9.1-4.1,13.94Z"/><path d="M552.82,320.35c4.08,2.19,8.42-1,12.52,3.2-5.58,1.82-10.46,1.17-15.74,.91v-29.99c4.92-.47,9.57-1.14,14.96,.85-4.01,3.87-8.44,.38-11.7,2.83v8.82c3.25,1.77,7.04-1.17,10.14,1.9-2.61,3.4-6.68,.28-9.85,2.58-1.09,2.64-.64,5.78-.34,8.9Z"/><path d="M479.16,325.46v-31.48c4.83-.61,9.49-1.06,15.01,.47-3.74,4.3-8.39,.91-11.89,3.42,.05,3.04-1.63,6.73,1.11,9.25,2.35,2.17,6.29-.98,10.2,2.73-6.92,.83-15.43-.09-10.48,11.46,2.41,2.45,7.67-2.03,11.12,2.94-5.07,1.98-9.71,.55-15.06,1.22Z"/><path d="M522.04,293.54c5.52,7,6.16,16.08,10.23,24.59,4.78-8.1,5.14-17.66,10.74-24.56-.88,10.64-5.28,20.04-8.28,29.87-.86,2.82-3.85,2.73-4.75-.02-3.18-9.77-7.14-19.34-7.94-29.89Z"/><path d="M314.92,321.8c-5.81,5.59-14.53,4.86-19.15-.98-4.8-6.06-3.47-20.03,2.33-24.62,5.88-4.65,12.88-4.6,16.34,.7-5.39-.15-10.94-2.24-14.89,3.04-2.38,3.18-3.36,6.66-3.14,10.65,.5,8.97,2.7,10.38,18.51,11.22Z"/><path d="M473.13,296.98c-11.5-1.41-16.8,2.03-17.42,10.8-.76,10.59,2.18,13.03,17.82,14.15-3.42,5.45-8.24,3.89-12.16,3.13-6.19-1.19-9.71-7.61-9.55-15.71,.16-8.12,4.69-14.75,11.12-16.27,4.85-1.15,8.29,.02,10.2,3.9Z"/><path class="cls-1" d="M515.51,180.69c-.34,33.54-26.47,59.87-59.13,59.59-31.56-.27-56.76-27.89-56.39-61.8,.36-32.63,26.67-58.78,58.78-58.41,31.57,.36,57.08,27.61,56.74,60.63Z"/><path class="cls-1" d="M764.73,191.46c6.3-15.18,12.26-29.55,18.84-45.39,6.55,15.66,12.63,30.17,19,45.39h-37.84Z"/><path class="cls-2" d="M227.34,313.23c-12.94,0-25.89-.07-38.83,.06-3.88,.04-6.66-.25-6.61-5.57,.05-4.92,2.54-5.29,6.21-5.28,26.53,.08,53.07,.04,79.6,.03,3.36,0,7.06,.14,7.17,4.69,.11,4.83-3.13,6.16-7.41,6.11-13.37-.14-26.75-.05-40.13-.04Z"/><path class="cls-2" d="M881.48,311.15l4.46,1.18c.22,.68,.01,.84-.6,.84-28.48,0-56.96,0-85.44,.12-3.05,.01-5.82-.53-7.26-3.3-1.48-2.84-2.22-7.06,2.14-7.22,8.32-.3,16.21-4.81,24.63-2.82,21.04,4.97,42.36,1.38,63.53,2.52,2.58,.14,4.56,.35,4.88,3.83,.36,3.99-2.29,4.37-6.33,4.84Z"/><path d="M602,299.08c1.66,5.26,2.9,9.15,4.16,13.15-3.22,1.18-5.7,1.08-8.59,.51,.24-4.59,1.94-8.52,4.43-13.66Z"/><path d="M645.01,319.15c-3.6,2.48-7.23,4.53-11.18,1.19-2.23-1.89-2.58-4.7-1.28-7.35,.96-1.96,2.39-4.33,4.87-3.54,4.38,1.39,7.34,4.39,7.59,9.7Z"/><path d="M642.38,300.74c-.6,1.97-1.58,4.34-4.1,3.94-2.35-.37-3.25-2.73-3.09-5.15,.16-2.47,1.89-3.56,3.97-3.27,2.07,.29,3.37,1.81,3.21,4.48Z"/><path d="M341.29,309.07c.03,8.32-3.37,12.69-9.83,12.66-6.33-.03-10.22-4.92-10.11-12.74,.09-7.08,4.92-12.96,10.55-12.88,5.29,.08,9.37,5.71,9.4,12.96Z"/><path d="M760.78,309.14c.05,8.01-3.32,12.54-9.38,12.64-6.35,.1-10.37-4.8-10.34-12.61,.03-7.32,4.52-12.94,10.37-13,5.35-.05,9.3,5.43,9.35,12.97Z"/><path d="M503.08,297.11c3.2-.15,6.42-1.34,8.69,2.13,1.34,2.05,1.22,4.15,.03,6.22-2.13,3.71-5.5,2.28-8.69,2.4-.77-3.58-.7-7.01-.03-10.75Z"/><path d="M421.8,313.02c.03-4.84,2.25-8.34,4.1-13.94,1.81,5.42,3.08,9.21,4.38,13.08-2.86,1.56-5.36,.84-8.48,.86Z"/><rect x="288.6" y="284.66" width="482.06" height="46.43"/><g><path class="cls-3" d="M317.85,321.14c-1.43,.69-4.3,1.37-7.98,1.37-8.52,0-14.93-5.14-14.93-14.62s6.41-15.17,15.78-15.17c3.77,0,6.14,.77,7.17,1.29l-.94,3.04c-1.48-.69-3.59-1.2-6.1-1.2-7.08,0-11.79,4.33-11.79,11.92,0,7.07,4.26,11.62,11.61,11.62,2.38,0,4.8-.47,6.37-1.2l.81,2.96Z"/><path class="cls-3" d="M347.62,307.34c0,9.94-6.32,15.22-14.03,15.22s-13.58-5.92-13.58-14.66c0-9.17,5.96-15.17,14.03-15.17s13.58,6.04,13.58,14.62Zm-23.45,.47c0,6.17,3.5,11.7,9.64,11.7s9.68-5.44,9.68-12c0-5.74-3.14-11.74-9.64-11.74s-9.68,5.7-9.68,12.04Z"/><path class="cls-3" d="M373.79,321.14c-1.43,.69-4.3,1.37-7.98,1.37-8.52,0-14.93-5.14-14.93-14.62s6.41-15.17,15.78-15.17c3.77,0,6.14,.77,7.17,1.29l-.94,3.04c-1.48-.69-3.59-1.2-6.1-1.2-7.08,0-11.79,4.33-11.79,11.92,0,7.07,4.26,11.62,11.61,11.62,2.38,0,4.8-.47,6.37-1.2l.81,2.96Z"/><path class="cls-3" d="M382.58,293.2v28.89h-3.9v-28.89h3.9Z"/><path class="cls-3" d="M389.39,322.09v-28.89h4.26l9.68,14.62c2.24,3.39,3.99,6.43,5.42,9.39l.09-.04c-.36-3.86-.45-7.37-.45-11.87v-12.09h3.68v28.89h-3.95l-9.59-14.66c-2.11-3.21-4.12-6.51-5.65-9.64l-.13,.04c.22,3.64,.31,7.12,.31,11.92v12.34h-3.68Z"/><path class="cls-3" d="M423.77,313l-3.14,9.09h-4.03l10.27-28.89h4.71l10.31,28.89h-4.17l-3.23-9.09h-10.71Zm9.91-2.91l-2.96-8.32c-.67-1.89-1.12-3.6-1.57-5.27h-.09c-.45,1.71-.94,3.47-1.52,5.23l-2.96,8.36h9.1Z"/><path class="cls-3" d="M476.94,321.14c-1.43,.69-4.3,1.37-7.98,1.37-8.52,0-14.93-5.14-14.93-14.62s6.41-15.17,15.78-15.17c3.77,0,6.14,.77,7.17,1.29l-.94,3.04c-1.48-.69-3.59-1.2-6.1-1.2-7.08,0-11.79,4.33-11.79,11.92,0,7.07,4.26,11.62,11.61,11.62,2.38,0,4.8-.47,6.37-1.2l.81,2.96Z"/><path class="cls-3" d="M497.47,308.54h-11.75v10.42h13.09v3.13h-16.99v-28.89h16.32v3.13h-12.42v9.13h11.75v3.09Z"/><path class="cls-3" d="M503.88,293.58c1.97-.39,4.8-.6,7.49-.6,4.17,0,6.86,.73,8.74,2.36,1.52,1.29,2.38,3.26,2.38,5.49,0,3.82-2.51,6.34-5.69,7.37v.13c2.33,.77,3.72,2.83,4.44,5.83,.99,4.03,1.7,6.82,2.33,7.93h-4.03c-.49-.81-1.17-3.3-2.02-6.9-.9-3.99-2.51-5.49-6.05-5.62h-3.68v12.52h-3.9v-28.5Zm3.9,13.16h3.99c4.17,0,6.81-2.19,6.81-5.49,0-3.73-2.82-5.36-6.95-5.4-1.88,0-3.23,.17-3.86,.34v10.54Z"/><path class="cls-3" d="M535.35,322.09l-9.86-28.89h4.21l4.71,14.23c1.3,3.9,2.42,7.42,3.23,10.8h.09c.85-3.34,2.11-6.99,3.45-10.76l5.11-14.27h4.17l-10.8,28.89h-4.3Z"/><path class="cls-3" d="M569.37,308.54h-11.75v10.42h13.09v3.13h-16.99v-28.89h16.32v3.13h-12.42v9.13h11.75v3.09Z"/><path class="cls-3" d="M573.72,319.9l16.77-23.45v-.13h-15.33v-3.13h20.4v2.27l-16.68,23.36v.13h16.9v3.13h-22.06v-2.19Z"/><path class="cls-3" d="M605.45,313l-3.14,9.09h-4.03l10.27-28.89h4.71l10.31,28.89h-4.17l-3.23-9.09h-10.71Zm9.91-2.91l-2.96-8.32c-.67-1.89-1.12-3.6-1.57-5.27h-.09c-.45,1.71-.94,3.47-1.52,5.23l-2.96,8.36h9.1Z"/><path class="cls-3" d="M656.42,322.09c-.85-.81-1.66-1.63-2.82-2.83-2.6,2.31-5.51,3.3-8.83,3.3-5.87,0-9.28-3.77-9.28-8.1,0-3.94,2.47-6.64,5.92-8.44v-.13c-1.57-1.89-2.51-3.99-2.51-6.04,0-3.51,2.64-7.12,7.67-7.12,3.77,0,6.68,2.4,6.68,6.13,0,3.04-1.84,5.44-6.63,7.72v.13c2.55,2.83,5.42,6,7.35,8.06,1.39-2.01,2.33-4.8,2.91-8.44h3.59c-.81,4.54-2.11,8.14-4.35,10.67,1.61,1.63,3.18,3.26,4.98,5.1h-4.66Zm-4.75-4.97c-1.79-1.89-5.16-5.4-8.52-9.09-1.61,.99-3.9,2.83-3.9,5.87,0,3.3,2.56,5.83,6.19,5.83,2.6,0,4.8-1.11,6.23-2.61Zm-9.19-17.62c0,2.06,.99,3.64,2.29,5.19,3.05-1.67,5.02-3.21,5.02-5.66,0-1.76-1.03-3.73-3.5-3.73s-3.81,1.97-3.81,4.2Z"/><path class="cls-3" d="M679.15,322.09l-9.86-28.89h4.21l4.71,14.23c1.3,3.9,2.42,7.42,3.23,10.8h.09c.85-3.34,2.11-6.99,3.45-10.76l5.11-14.27h4.17l-10.8,28.89h-4.3Z"/><path class="cls-3" d="M701.43,293.2v28.89h-3.9v-28.89h3.9Z"/><path class="cls-3" d="M708.24,322.09v-28.89h4.26l9.68,14.62c2.24,3.39,3.99,6.43,5.42,9.39l.09-.04c-.36-3.86-.45-7.37-.45-11.87v-12.09h3.68v28.89h-3.94l-9.59-14.66c-2.11-3.21-4.12-6.51-5.65-9.64l-.13,.04c.22,3.64,.31,7.12,.31,11.92v12.34h-3.68Z"/><path class="cls-3" d="M763.56,307.34c0,9.94-6.32,15.22-14.03,15.22s-13.58-5.92-13.58-14.66c0-9.17,5.96-15.17,14.03-15.17s13.58,6.04,13.58,14.62Zm-23.45,.47c0,6.17,3.5,11.7,9.64,11.7s9.68-5.44,9.68-12c0-5.74-3.14-11.74-9.64-11.74s-9.68,5.7-9.68,12.04Z"/></g></svg>