<?xml version="1.0" encoding="UTF-8"?><svg id="Capa_1" xmlns="http://www.w3.org/2000/svg" viewBox="0 0 993.78 999.11"><defs><style>.cls-1{fill:#030303;}.cls-2{fill:#fefefe;}</style></defs><path class="cls-2" d="M496.96,0C222.83,.85,.83,220.98,0,497.91c-.84,282.22,225.93,500.51,495.55,501.2,272.51,.7,499.42-220.21,498.22-501.81C992.61,221.96,771.75,.94,496.96,0Z"/><path class="cls-1" d="M496.96,0c274.79,.94,495.65,221.96,496.81,497.3,1.19,281.6-225.71,502.51-498.22,501.81C225.93,998.42-.84,780.13,0,497.91,.83,220.98,222.83,.85,496.96,0Zm-138.61,573.13c8.44-10.79,16.16-22.13,23.49-33.74,39.91-63.19,67.46-131.6,84.86-204.23,2.74-11.44,4.9-23.05,3.64-34.94-.91-8.57-5.34-12.19-13.72-11.12-17.42,2.21-34.81,4.66-52.24,6.75-4.05,.49-5.24,2.68-5.18,6.12,.44,25.17-3.61,49.83-8.82,74.3-9.55,44.86-23.61,88.17-45.52,128.61-11.08,20.45-24.44,39.19-42.74,53.91-6.25,5.03-13.03,9.2-20.55,12.15-13.64,5.36-26.36,4.41-38.61-4.18-19.43-13.61-34.75-31.02-47.72-50.68-19.98-30.3-32.56-63.73-41.51-98.77-6.12-23.96-8.25-47.6,.94-71.27,1.36-3.5-.67-5.35-4.52-4.08-10.74,3.55-21.45,7.24-31.15,13.25-9.49,5.88-15.17,14.19-16.47,25.59-1.3,11.41-.83,22.66,1.36,33.9,5.9,30.3,15.64,59.37,28.36,87.41,12.03,26.51,26.37,51.6,46.73,72.73,18.68,19.39,39.34,35.95,64.79,45.65,.61,.23,1.32,.41,.68,1.52-1.27-.46-2.56-.98-3.89-1.39-18.23-5.7-34.18-15.37-48.13-28.33-4.04-3.75-7.5-8.03-13.53-2.28,.61-2.22,1.51-3.67,.99-5.48-1.6-5.65-11.86-11.85-17.27-9.73-17.06,6.7-31.92,16.62-42.24,32.18-6.91,10.41-6.4,20.8,.68,30.23,3.66,4.88,8.41,8.5,13.73,11.41,16.71,9.14,34.96,12.71,53.6,14.27,41.48,3.47,82.1-.73,121.46-14.97,15.33-5.55,30.06-12.21,42.89-22.57,3.65-2.95,6.88-6.32,9.69-10.06,10.84-14.4,9.48-28.73-4.08-42.16Zm276.46-28.98c-.66-1.48-1.04-2.3-1.4-3.13-16.71-39.42-33.49-78.8-50.02-118.29-2.32-5.54-5.86-7.78-11.57-7.75-15.85,.09-31.69,.01-47.54,.04-5.29,.01-6.72,2.13-4.72,7.08,2.05,5.07,4.27,10.07,6.4,15.1,21.98,51.96,43.96,103.91,65.94,155.87,12.62,29.83,31.26,35.68,57.1,30.71,13.19-2.54,20.6-12.16,25.84-23.57,13.54-29.45,25.46-59.61,38.11-89.45,12.18-28.74,24.06-57.61,36.07-86.43,2.26-5.42,.15-8.84-5.71-9.3-.27-.02-.53-.02-.8-.03-16.46-.2-32.93,.41-49.39-.43-1.36-.07-2.26,.77-2.92,1.8-1.06,1.68-2.19,3.36-2.98,5.18-13.68,31.87-27.31,63.75-40.94,95.64-3.76,8.8-7.5,17.61-11.47,26.95Zm177.14-85.42c1.41-.87,2.77-.47,4.05-.47,24.1-.03,48.21-.03,72.31-.05,7.01,0,9.52-2.57,9.53-9.72,.02-8.03,.03-16.06-.01-24.08-.04-6.25-2.48-8.86-8.67-8.86-39.42-.04-78.84-.05-118.26,.01-6.56,0-8.78,2.42-8.78,9.08-.02,63.29-.01,126.57,0,189.86,0,6.75,2.45,9.22,9.09,9.22,39.55,0,79.11,0,118.66-.01,6.77,0,9.42-2.64,9.47-9.44,.05-7.49,.02-14.99,.02-22.48,0-8.24-2.19-10.52-10.34-10.53-24.1-.02-48.21,0-72.31-.03-1.55,0-3.17,.37-4.7-.4v-42.71c1.58,0,2.89,0,4.19,0,22.37,0,44.75-.02,67.12-.01,8.17,0,9.98-1.82,10-10.17,.01-6.96,0-13.91,0-20.87,0-7.42-2.1-9.53-9.47-9.53-22.91,0-45.81,0-68.72-.03-1.03,0-2.14,.36-3.2-.66v-38.12ZM243.85,369.34c.05,4.7,.31,9.38,1.43,13.95,.62,2.55,1.76,5.15,4.64,5.38,2.76,.21,3.27-2.69,4.37-4.58,.13-.22,.17-.5,.23-.76,3.44-15.17,12.84-26.42,23.71-36.78,8.39-8,17.52-15.26,24.65-24.54,8.65-11.27,9.13-23.87,1.33-35.74-4.86-7.39-11.87-12.1-19.63-15.92-8.51-4.19-17.71-6.55-26.4-10.24-7.52-3.2-9.12-7.55-5.6-14.98,2.26-4.77,5.63-8.72,9.15-12.57,9.59-10.51,21.27-18.59,31.98-27.8,18.58-15.97,26.92-36.34,25.38-60.81-.18-2.79-.38-5.62-1.45-8.27-.84-2.08-1.48-4.84-4.1-4.89-2.76-.05-3.34,2.76-3.88,4.91-1.46,5.71-4.33,10.63-8.1,15.02-13.63,15.84-29.08,29.34-48.31,38.03-13.52,6.11-23.85,15.34-28.82,29.91-7.03,20.59-2.11,38.82,14.22,51.26,6.54,4.98,13.95,8.22,21.88,10.35,6.42,1.73,12.85,3.48,18.59,7.04,7.21,4.47,8.61,10.14,4.13,17.28-3.97,6.32-9.55,11.16-15.36,15.62-16.21,12.4-23.98,28.85-24.05,49.15Zm211.02,176.54c0,24.62-.01,49.25,.01,73.87,0,4.82,1.43,6.25,6.15,6.26,13.72,.03,27.44,.05,41.16,0,4.69-.02,6.3-1.61,6.3-6.26,.02-49.38,0-98.77,.02-148.15,0-2.4-.26-4.57-2.62-5.83-2.28-1.2-3.94,.08-5.82,1.25-11.96,7.44-24.04,7.72-36.09,.19-2.08-1.3-3.99-2.81-6.57-1.47-2.79,1.45-2.55,4.1-2.55,6.65,0,24.49,0,48.98,0,73.47Zm50.72-112.04c-.17-15-11.88-26.32-27.03-26.14-14.21,.17-25.94,12.41-25.68,26.81,.26,14.34,12.35,26.24,26.54,26.11,14.55-.13,26.34-12.19,26.17-26.78Zm-66.44,334.02c-.03,9.05,6.24,16.29,15.01,17.37,5.97,.73,11.28-1.1,16.28-4.16q4.95-3.03,9.12,1.13c1.43,1.43,2.77,2.99,5.14,2.04,6.51-2.6,7.23-5.65,2.5-10.69-.18-.19-.35-.41-.55-.58-3.02-2.42-3.7-5.03-.75-8.04,.64-.65,1.06-1.54,1.55-2.33,4.06-6.47,4.02-6.39-2.83-9.7-2.83-1.37-4.71-1.25-5.98,1.96-.53,1.33-1.58,2.46-2.41,3.66-.59,.85-1.57,1.47-2.36,.76-1.77-1.58-3.92-3.15-4.81-5.21-.92-2.11,1.87-2.85,3.21-3.96,6.63-5.5,8.36-13.96,4.15-20.75-4.88-7.86-14.73-10.16-22.69-5.31-7.81,4.75-10.09,15.11-4.8,23.59,1.72,2.75,1.39,3.93-1.08,5.73-4.86,3.54-8.68,7.92-8.7,14.49Zm-81.84-14.54c0,8.82,.09,17.65-.05,26.47-.05,3.16,.81,4.64,4.25,4.6,12.37-.14,24.75-.18,37.13-.01,4.38,.06,4.09-2.6,4.14-5.55,.05-2.98-.15-5.23-4.15-5.09-6.78,.23-13.57,.06-20.36,.06-9.62,0-9.55,0-9.23-9.86,.11-3.36,1.37-4.78,4.83-4.69,7.05,.17,14.11-.08,21.16,.08,4.5,.1,3.88-2.93,3.95-5.72,.07-2.9-.09-5.33-4.12-5.15-5.18,.23-10.38,.11-15.57,.04-11.02-.15-10.09,1.46-10.25-10.42-.05-3.92,1.57-5.13,5.27-5.05,7.98,.17,15.98-.16,23.95,.13,4.46,.16,4.49-2.3,4.58-5.55,.09-3.46-.79-5.14-4.67-5.08-12.11,.19-24.22,.16-36.33,0-3.54-.05-4.65,1.3-4.59,4.72,.16,8.69,.05,17.38,.06,26.07Zm436.49-31.61c-2.68-.2-5.85,.22-8.97,.96-8.46,2.01-13.74,7.87-14.22,15.66-.52,8.56,3.45,14.46,12.06,17.67,2.23,.83,4.59,1.36,6.92,1.88,4.53,1.02,9.2,1.46,13.55,3.2,2.26,.9,4.38,2.13,4.62,4.98,.26,3.08-1.48,5.02-3.88,6.48-2.97,1.81-6.25,2.05-9.63,1.84-5.52-.35-10.15-2.98-14.69-5.77-2.28-1.39-3.95-1.17-5.33,1.16-.61,1.03-1.21,2.09-1.97,3.01-2.23,2.7-1.21,4.33,1.39,6.09,9.24,6.29,19.44,7.81,30.15,6.03,6.55-1.09,12.37-4.11,14.74-10.87,3.1-8.82,1.5-19.34-9.91-23.69-6.26-2.38-12.99-2.77-19.28-4.93-3.1-1.06-6.87-1.88-6.63-6.27,.23-4.19,3.89-5.02,7.08-5.94,1.38-.4,2.9-.42,4.35-.42,4.37,0,8.45,1.28,12.03,3.7,3.19,2.15,5.36,1.64,7.11-1.69,.43-.82,1.02-1.56,1.58-2.31,1.51-2.03,1.14-3.55-.98-4.97-5.94-3.98-12.44-5.94-20.11-5.8Zm-621.64,31.92c0,10.8,4.6,19.31,13.05,25.76,13.42,10.24,33.88,7.35,43.93-6.1,1.04-1.4,2.4-2.83,.98-4.62-2.51-3.17-9.44-3.44-12.28-.58-10.16,10.19-25.06,7.79-31.59-5.09-4.58-9.02-1.79-20.38,6.5-26.49,7.98-5.88,17.79-5.01,25.15,2.79,3.12,3.31,5.8,2.05,8.92,.76,4.79-1.98,5.04-2.83,1.85-6.77-8.28-10.22-22.63-14.28-35.01-9.92-13.01,4.59-21.45,16.48-21.5,30.27Zm596.28,30.25c-.33-1.12-.42-1.78-.7-2.35-9.37-18.9-18.76-37.79-28.18-56.66-.51-1.01-.97-2.39-2.5-2.23-1.8,.18-2.12,1.91-2.73,3.14-8.95,17.87-17.86,35.77-26.75,53.68-.68,1.38-1.9,2.68-1.14,4.46,9.31,1.59,10.6,1.1,14.94-6.44,1.34-2.32,3.22-2.92,5.65-2.89,6.26,.06,12.53,.23,18.77-.04,4.17-.18,6.89,1.13,8.26,5.2,.68,2.01,1.57,4.3,4.05,4.47,3.26,.22,6.57,.48,10.32-.32Zm-182.59,.44c.67-1.47,.22-2.42-.27-3.4-9.28-18.6-18.53-37.22-27.81-55.82-.52-1.03-.86-2.4-2.32-2.49-1.75-.1-2.06,1.49-2.63,2.61-5.13,10.11-10.22,20.24-15.3,30.37-4.12,8.23-8.23,16.47-12.28,24.74-.63,1.28-2.14,2.99,.31,3.91,5.28,1.99,11.13-.37,13.38-5.57,1.32-3.05,3.3-4.18,6.48-4.11,5.99,.13,12,.34,17.97-.05,4.73-.31,7.61,1.37,9.12,5.8,.72,2.09,1.84,3.94,4.41,3.99,3.04,.06,6.08,.01,8.94,.01Zm-291.26-.01c.21-2.46-.77-3.79-1.46-5.18-8.77-17.65-17.56-35.29-26.38-52.91-.68-1.37-.94-3.38-2.85-3.51-2.25-.15-2.5,2.12-3.22,3.54-8.97,17.85-17.86,35.74-26.76,53.63-.63,1.27-1.69,2.5-.74,4.07,9.43,1.45,10.28,1.14,14.88-6.65,1.3-2.19,3.1-2.68,5.34-2.68,6.25,0,12.52,.25,18.75-.09,4.56-.25,7.35,1.34,8.74,5.69,.67,2.1,1.84,3.98,4.36,4.07,3.03,.11,6.06,.03,9.34,.03Zm8.06-30.97c0,8.02,0,16.05,0,24.07,0,6.95,0,6.78,7.06,7,3.61,.11,5.07-.9,4.87-4.72-.28-5.2,.03-10.43-.1-15.64-.08-3.37,1.15-4.87,4.67-4.79,6.78,.16,13.58-.16,20.36,.11,3.82,.15,5.13-1.3,4.65-4.89-.07-.53-.07-1.08,0-1.6,.43-3.42-.86-4.85-4.46-4.67-5.05,.25-10.11,.08-15.17,.06-11.16-.05-9.88,1.35-10.06-10.51-.05-3.44,1.26-4.78,4.72-4.72,8.25,.15,16.51-.11,24.75,.11,4.01,.11,4.21-2.1,4.13-5.08-.08-2.89,.32-5.62-4.12-5.55-12.24,.19-24.49,.15-36.73,.02-3.5-.04-4.69,1.29-4.63,4.73,.16,8.69,.05,17.38,.05,26.07Zm380.99,5.75c0,6.95-.02,13.91,.01,20.86,0,1.3-.46,3.04,.91,3.69,2.99,1.42,6.32,1.02,9.34,.33,2.23-.5,1.56-3.09,1.57-4.89,.03-13.77,.07-27.55-.03-41.32-.03-3.43,1.21-4.91,4.69-4.71,3.18,.18,6.39-.04,9.58,.05,3.43,.09,3.48-2.21,3.33-4.6-.16-2.46,1.06-5.86-3.29-5.88-13.58-.05-27.15,0-40.73-.04-2.02,0-2.94,.96-2.99,2.89-.04,1.47,.01,2.94-.03,4.41-.06,2.42,1.14,3.29,3.47,3.22,3.19-.1,6.4,.13,9.58-.05,3.53-.2,4.68,1.41,4.62,4.78-.13,7.08-.04,14.17-.04,21.26Zm-91.19-5.63c0,8.96,.07,17.92-.04,26.88-.04,2.94,1.04,4.04,3.98,4.02,12.11-.1,24.23-.18,36.34,.02,4.53,.08,3.93-2.75,4.04-5.58,.12-3.06-.29-5.14-4.23-5.01-7.45,.24-14.91,.07-22.36,.08-5.55,0-5.93-.32-5.94-5.82-.03-13.38,0-26.75-.02-40.13,0-5.3-.04-5.31-5.41-5.34-.67,0-1.34,.07-2,0-3.36-.42-4.45,1.15-4.41,4.4,.13,8.83,.04,17.66,.04,26.48Zm52.99-.24c0,7.88,0,15.77,0,23.65,0,7.52,0,7.37,7.6,7.52,3.41,.07,4.35-1.27,4.33-4.48-.1-17.64-.09-35.27,0-52.91,.01-3.03-.97-4.57-4.13-4.34-1.06,.08-2.13,.08-3.19-.02-3.36-.33-4.76,.91-4.67,4.53,.22,8.68,.07,17.37,.07,26.05Zm-272.75-34.28c7.03,1.66,13.95-1.59,17.72-7.86-1.64-1.63-3.89-2.12-5.9-3.03-1.45-.66-2.87-.61-3.95,.77-2.53,3.23-5.03,6.47-7.87,10.12Zm59.04-62.66c.02,2.34,1.14,4.05,3.65,4.3,2.71,.27,4.36-1.22,4.5-3.92,.12-2.42-1.13-4.26-3.6-4.52-2.69-.28-4.16,1.35-4.55,4.14Zm59.34,4.42c2.36-.42,3.98-1.77,3.91-4.24-.07-2.54-1.54-4.45-4.23-4.34-2.66,.11-4.01,2.05-3.91,4.64,.1,2.52,1.75,3.73,4.23,3.93Zm279.09-8.63c-2.55,.49-4.01,2.16-3.85,4.73,.15,2.44,1.85,3.92,4.29,3.82,2.48-.1,3.96-1.8,3.92-4.21-.04-2.58-1.63-4.13-4.37-4.34Zm-219.96,4.24c-.56-2.42-1.83-4.35-4.5-4.21-2.46,.12-3.78,1.95-3.78,4.37,0,2.74,1.65,4.24,4.31,4.14,2.55-.09,3.6-1.94,3.97-4.3Zm279.33,.08c-.28-2.75-1.76-4.39-4.38-4.25-2.48,.13-3.82,2.02-3.76,4.37,.06,2.61,1.67,4.27,4.38,4.1,2.5-.16,3.67-1.85,3.76-4.22Zm-119.65,0c.16,2.54,1.38,4.19,3.89,4.22,2.64,.03,4.28-1.56,4.22-4.24-.05-2.37-1.38-4.17-3.88-4.23-2.7-.07-3.99,1.69-4.23,4.24Zm-48.41-.38c-.28-2.2-1.53-4.06-4.25-3.86-2.38,.17-3.82,1.81-3.78,4.33,.04,2.75,1.64,4.25,4.27,4.13,2.45-.11,3.81-1.65,3.76-4.61Zm-54.96,.45c-.28-2.45-1.4-4.34-4.16-4.36-2.57-.01-3.88,1.8-4,4.14-.14,2.68,1.44,4.35,4.11,4.37,2.49,.02,3.83-1.56,4.06-4.15Zm279.53,.19c-.08-2.91-1.68-4.54-4.2-4.53-2.36,0-3.89,1.69-3.96,4.19-.07,2.52,1.35,4.17,3.77,4.3,2.61,.14,4.18-1.39,4.39-3.96Z"/><path class="cls-2" d="M358.35,573.13c13.56,13.43,14.92,27.76,4.08,42.16-2.82,3.74-6.04,7.11-9.69,10.06-12.82,10.36-27.55,17.02-42.89,22.57-39.36,14.24-79.98,18.44-121.46,14.97-18.64-1.56-36.89-5.14-53.6-14.27-5.32-2.91-10.07-6.53-13.73-11.41-7.08-9.43-7.59-19.82-.68-30.23,10.32-15.56,25.18-25.48,42.24-32.18,5.41-2.13,15.67,4.08,17.27,9.73,.51,1.81-.39,3.26-.99,5.48,6.04-5.75,9.49-1.47,13.53,2.28,13.96,12.96,29.91,22.63,48.13,28.33,1.33,.41,2.62,.94,3.89,1.39,.64-1.11-.07-1.29-.68-1.52-25.45-9.7-46.11-26.26-64.79-45.65-20.36-21.14-34.71-46.22-46.73-72.73-12.72-28.05-22.45-57.11-28.36-87.41-2.19-11.24-2.66-22.48-1.36-33.9,1.3-11.4,6.98-19.71,16.47-25.59,9.7-6.01,20.41-9.69,31.15-13.25,3.86-1.28,5.88,.57,4.52,4.08-9.19,23.67-7.06,47.31-.94,71.27,8.96,35.05,21.53,68.47,41.51,98.77,12.97,19.66,28.3,37.07,47.72,50.68,12.25,8.58,24.98,9.54,38.61,4.18,7.52-2.96,14.29-7.13,20.55-12.15,18.3-14.71,31.66-33.45,42.74-53.91,21.91-40.44,35.97-83.75,45.52-128.61,5.21-24.47,9.26-49.12,8.82-74.3-.06-3.44,1.13-5.63,5.18-6.12,17.43-2.1,34.82-4.55,52.24-6.75,8.38-1.06,12.81,2.56,13.72,11.12,1.26,11.89-.9,23.5-3.64,34.94-17.4,72.63-44.94,141.03-84.86,204.23-7.33,11.6-15.05,22.94-23.49,33.74Zm-210.74,35.54c-7.33,4.58-8.24,14.71-1.78,20.33,2.74,2.38,5.89,4.07,9.26,5.42,10.49,4.2,21.54,5.77,32.65,6.98,23.64,2.57,47.12,1.23,70.59-2.48,18.36-2.9,36.34-7.04,53.73-13.61,11.32-4.27,22.66-8.6,32.15-16.5,3.56-2.96,6.26-6.54,7.35-11.16,.96-4.06-.42-8.47-3.3-10.47-.96-.67-1.89-1.5-3.19-.44-2.83,2.3-5.94,4.28-8.33,7.12,5.88,5.24,5.99,9,.65,14.62-.64,.67-1.34,1.3-2.04,1.91-4.58,3.94-9.7,7.07-15.16,9.55-34.1,15.48-69.78,23.04-107.28,21.59-20.11-.77-39.62-4.26-58.29-11.98-10.26-4.24-12.65-11.55-6.95-21.02l-.09-.1,.03,.22Z"/><path class="cls-2" d="M634.81,544.15c3.98-9.34,7.71-18.15,11.47-26.95,13.63-31.88,27.26-63.77,40.94-95.64,.78-1.82,1.91-3.49,2.98-5.18,.65-1.04,1.55-1.87,2.92-1.8,16.46,.84,32.93,.23,49.39,.43,.27,0,.53,0,.8,.03,5.87,.46,7.97,3.88,5.71,9.3-12.01,28.82-23.89,57.69-36.07,86.43-12.65,29.84-24.57,60-38.11,89.45-5.25,11.41-12.65,21.03-25.84,23.57-25.84,4.97-44.48-.88-57.1-30.71-21.98-51.96-43.96-103.91-65.94-155.87-2.13-5.04-4.36-10.03-6.4-15.1-2-4.95-.56-7.07,4.72-7.08,15.85-.03,31.69,.04,47.54-.04,5.71-.03,9.25,2.22,11.57,7.75,16.53,39.49,33.32,78.87,50.02,118.29,.35,.83,.74,1.65,1.4,3.13Z"/><path class="cls-2" d="M811.95,458.73v38.12c1.06,1.02,2.17,.66,3.2,.66,22.91,.02,45.81,.02,68.72,.03,7.37,0,9.46,2.11,9.47,9.53,0,6.96,0,13.91,0,20.87-.02,8.35-1.83,10.17-10,10.17-22.37,0-44.75,0-67.12,.01-1.31,0-2.61,0-4.19,0v42.71c1.53,.77,3.15,.4,4.7,.4,24.1,.03,48.21,.01,72.31,.03,8.15,0,10.35,2.28,10.34,10.53,0,7.49,.03,14.99-.02,22.48-.05,6.81-2.7,9.44-9.47,9.44-39.55,.01-79.11,.02-118.66,.01-6.64,0-9.09-2.47-9.09-9.22-.01-63.29-.01-126.57,0-189.86,0-6.67,2.22-9.08,8.78-9.08,39.42-.06,78.84-.06,118.26-.01,6.19,0,8.63,2.62,8.67,8.86,.04,8.03,.03,16.06,.01,24.08-.02,7.15-2.52,9.71-9.53,9.72-24.1,.02-48.21,.02-72.31,.05-1.29,0-2.64-.4-4.05,.47Z"/><path class="cls-2" d="M243.85,369.34c.07-20.3,7.84-36.75,24.05-49.15,5.82-4.45,11.4-9.29,15.36-15.62,4.48-7.14,3.08-12.81-4.13-17.28-5.74-3.56-12.17-5.32-18.59-7.04-7.92-2.13-15.34-5.37-21.88-10.35-16.34-12.44-21.25-30.66-14.22-51.26,4.97-14.56,15.3-23.79,28.82-29.91,19.23-8.7,34.68-22.2,48.31-38.03,3.78-4.39,6.65-9.31,8.1-15.02,.55-2.14,1.12-4.96,3.88-4.91,2.62,.05,3.26,2.8,4.1,4.89,1.06,2.64,1.27,5.47,1.45,8.27,1.55,24.47-6.79,44.84-25.38,60.81-10.71,9.21-22.39,17.29-31.98,27.8-3.52,3.85-6.89,7.8-9.15,12.57-3.52,7.43-1.93,11.79,5.6,14.98,8.69,3.69,17.89,6.06,26.4,10.24,7.76,3.82,14.77,8.53,19.63,15.92,7.81,11.87,7.32,24.47-1.33,35.74-7.13,9.28-16.25,16.55-24.65,24.54-10.88,10.36-20.27,21.61-23.71,36.78-.06,.26-.1,.54-.23,.76-1.11,1.9-1.61,4.8-4.37,4.58-2.88-.22-4.02-2.82-4.64-5.38-1.12-4.57-1.38-9.25-1.43-13.95Z"/><path class="cls-2" d="M454.86,545.89c0-24.49,0-48.98,0-73.47,0-2.55-.25-5.21,2.55-6.65,2.58-1.34,4.49,.17,6.57,1.47,12.04,7.54,24.13,7.25,36.09-.19,1.88-1.17,3.54-2.45,5.82-1.25,2.37,1.25,2.63,3.43,2.62,5.83-.02,49.38,0,98.77-.02,148.15,0,4.64-1.61,6.24-6.3,6.26-13.72,.05-27.44,.03-41.16,0-4.72-.01-6.14-1.45-6.15-6.26-.02-24.62-.01-49.25-.01-73.87Z"/><path class="cls-2" d="M505.58,433.85c.17,14.59-11.62,26.64-26.17,26.78-14.19,.13-26.28-11.77-26.54-26.11-.26-14.39,11.47-26.64,25.68-26.81,15.15-.18,26.85,11.14,27.03,26.14Z"/><path class="cls-2" d="M439.14,767.87c.02-6.57,3.84-10.95,8.7-14.49,2.47-1.8,2.8-2.99,1.08-5.73-5.29-8.48-3.01-18.83,4.8-23.59,7.96-4.85,17.81-2.54,22.69,5.31,4.22,6.79,2.48,15.25-4.15,20.75-1.34,1.11-4.13,1.85-3.21,3.96,.89,2.06,3.03,3.63,4.81,5.21,.79,.71,1.77,.09,2.36-.76,.84-1.2,1.89-2.33,2.41-3.66,1.27-3.21,3.15-3.33,5.98-1.96,6.85,3.32,6.89,3.23,2.83,9.7-.5,.79-.91,1.67-1.55,2.33-2.95,3.01-2.28,5.62,.75,8.04,.21,.17,.37,.38,.55,.58,4.73,5.03,4.01,8.08-2.5,10.69-2.37,.95-3.71-.61-5.14-2.04q-4.17-4.17-9.12-1.13c-5,3.07-10.31,4.89-16.28,4.16-8.77-1.08-15.04-8.32-15.01-17.37Zm19.08,6.91c2.47-.01,4.65-.91,6.71-2.19,2.29-1.42,2.85-2.99,.68-5.08-2.11-2.03-4.08-4.21-6.13-6.3-1.05-1.06-2.13-1.93-3.85-1.27-3.04,1.18-5.6,5.48-5.09,8.75,.59,3.76,3.57,6.12,7.68,6.07Zm9.61-38.69c-.05-2.9-2.14-4.85-5.18-4.85-3.45,0-5.75,2.57-5.62,6.29,.13,3.69,2.34,7.51,4.27,7.37,2.4-.17,6.59-5.83,6.54-8.82Z"/><path class="cls-2" d="M357.29,753.32c0-8.69,.11-17.38-.06-26.07-.06-3.43,1.05-4.77,4.59-4.72,12.11,.16,24.22,.19,36.33,0,3.88-.06,4.76,1.62,4.67,5.08-.08,3.25-.11,5.72-4.58,5.55-7.97-.29-15.97,.04-23.95-.13-3.7-.08-5.32,1.13-5.27,5.05,.16,11.87-.77,10.27,10.25,10.42,5.19,.07,10.39,.19,15.57-.04,4.03-.18,4.19,2.25,4.12,5.15-.06,2.79,.56,5.82-3.95,5.72-7.05-.16-14.11,.09-21.16-.08-3.46-.08-4.72,1.33-4.83,4.69-.32,9.86-.39,9.86,9.23,9.86,6.79,0,13.58,.18,20.36-.06,4-.14,4.2,2.11,4.15,5.09-.05,2.94,.24,5.61-4.14,5.55-12.37-.17-24.75-.13-37.13,.01-3.44,.04-4.3-1.44-4.25-4.6,.14-8.82,.05-17.65,.05-26.47Z"/><path class="cls-2" d="M793.78,721.71c7.67-.14,14.16,1.82,20.11,5.8,2.12,1.42,2.49,2.94,.98,4.97-.56,.75-1.15,1.49-1.58,2.31-1.74,3.33-3.92,3.84-7.11,1.69-3.58-2.42-7.66-3.7-12.03-3.7-1.45,0-2.97,.02-4.35,.42-3.19,.92-6.85,1.75-7.08,5.94-.24,4.38,3.53,5.21,6.63,6.27,6.29,2.16,13.01,2.55,19.28,4.93,11.42,4.35,13.01,14.87,9.91,23.69-2.37,6.75-8.2,9.78-14.74,10.87-10.71,1.78-20.91,.26-30.15-6.03-2.59-1.77-3.62-3.4-1.39-6.09,.76-.92,1.36-1.98,1.97-3.01,1.37-2.33,3.05-2.55,5.33-1.16,4.54,2.79,9.17,5.42,14.69,5.77,3.38,.21,6.66-.03,9.63-1.84,2.4-1.46,4.14-3.4,3.88-6.48-.24-2.85-2.36-4.08-4.62-4.98-4.35-1.74-9.02-2.18-13.55-3.2-2.33-.52-4.69-1.05-6.92-1.88-8.61-3.21-12.59-9.11-12.06-17.67,.47-7.79,5.75-13.65,14.22-15.66,3.12-.74,6.29-1.16,8.97-.96Z"/><path class="cls-2" d="M172.14,753.63c.05-13.79,8.48-25.68,21.5-30.27,12.38-4.37,26.73-.3,35.01,9.92,3.19,3.94,2.94,4.78-1.85,6.77-3.12,1.29-5.79,2.56-8.92-.76-7.36-7.8-17.17-8.67-25.15-2.79-8.29,6.11-11.07,17.46-6.5,26.49,6.53,12.88,21.43,15.28,31.59,5.09,2.84-2.85,9.78-2.59,12.28,.58,1.42,1.8,.06,3.23-.98,4.62-10.05,13.45-30.51,16.34-43.93,6.1-8.45-6.45-13.04-14.96-13.05-25.76Z"/><path class="cls-2" d="M768.42,783.88c-3.75,.81-7.06,.54-10.32,.32-2.48-.17-3.37-2.46-4.05-4.47-1.38-4.07-4.1-5.38-8.26-5.2-6.25,.27-12.52,.09-18.77,.04-2.43-.02-4.31,.57-5.65,2.89-4.35,7.55-5.63,8.04-14.95,6.44-.76-1.78,.45-3.08,1.14-4.46,8.89-17.91,17.8-35.8,26.75-53.68,.62-1.24,.93-2.96,2.73-3.14,1.53-.16,1.99,1.22,2.5,2.23,9.42,18.87,18.8,37.77,28.18,56.66,.28,.57,.37,1.23,.7,2.35Zm-39.71-20.02c5.98,.59,11.04,.99,16.67-.26-2.8-5.87-5.33-11.18-8.3-17.42-2.99,6.31-5.47,11.55-8.37,17.68Z"/><path class="cls-2" d="M585.84,784.32c-2.86,0-5.9,.04-8.94-.01-2.57-.05-3.7-1.9-4.41-3.99-1.52-4.43-4.39-6.11-9.12-5.8-5.97,.39-11.98,.18-17.97,.05-3.18-.07-5.16,1.07-6.48,4.11-2.25,5.2-8.1,7.56-13.38,5.57-2.44-.92-.93-2.63-.31-3.91,4.05-8.27,8.16-16.51,12.28-24.74,5.08-10.14,10.17-20.26,15.3-30.37,.57-1.12,.88-2.72,2.63-2.61,1.47,.09,1.81,1.45,2.32,2.49,9.28,18.6,18.54,37.22,27.81,55.82,.49,.99,.94,1.93,.27,3.4Zm-22.16-20.43c-2.93-6.14-5.45-11.42-8.47-17.77-2.86,6.65-6.26,11.65-7.83,18.13,5.56,.07,10.5,.42,16.3-.36Z"/><path class="cls-2" d="M294.57,784.31c-3.28,0-6.31,.08-9.34-.03-2.53-.09-3.69-1.97-4.36-4.07-1.39-4.35-4.18-5.95-8.74-5.69-6.23,.35-12.5,.1-18.75,.09-2.23,0-4.04,.49-5.34,2.68-4.6,7.78-5.45,8.1-14.88,6.65-.95-1.57,.11-2.8,.74-4.07,8.9-17.89,17.8-35.78,26.76-53.63,.72-1.42,.96-3.69,3.22-3.54,1.92,.13,2.17,2.14,2.85,3.51,8.82,17.63,17.61,35.27,26.38,52.91,.69,1.39,1.67,2.72,1.46,5.18Zm-30.73-38c-3.22,6.16-6.07,11.4-8.26,17.97,5.7-.07,10.69,.43,16.43-.43-2.76-5.93-5.2-11.16-8.17-17.54Z"/><path class="cls-2" d="M302.63,753.34c0-8.69,.1-17.38-.05-26.07-.06-3.44,1.12-4.77,4.63-4.73,12.24,.14,24.49,.18,36.73-.02,4.44-.07,4.04,2.66,4.12,5.55,.08,2.98-.12,5.19-4.13,5.08-8.25-.22-16.5,.04-24.75-.11-3.46-.06-4.77,1.28-4.72,4.72,.18,11.86-1.1,10.46,10.06,10.51,5.06,.02,10.12,.19,15.17-.06,3.6-.18,4.89,1.26,4.46,4.67-.07,.53-.07,1.08,0,1.6,.48,3.59-.84,5.05-4.65,4.89-6.78-.27-13.58,.05-20.36-.11-3.51-.08-4.75,1.42-4.67,4.79,.13,5.21-.17,10.44,.1,15.64,.2,3.81-1.27,4.83-4.87,4.72-7.06-.22-7.06-.04-7.06-7,0-8.02,0-16.05,0-24.07Z"/><path class="cls-2" d="M683.62,759.09c0-7.09-.09-14.18,.04-21.26,.06-3.36-1.09-4.97-4.62-4.78-3.18,.18-6.39-.05-9.58,.05-2.33,.08-3.53-.8-3.47-3.22,.04-1.47-.01-2.94,.03-4.41,.05-1.93,.97-2.9,2.99-2.89,13.58,.03,27.15-.01,40.73,.04,4.36,.01,3.13,3.42,3.29,5.88,.16,2.39,.11,4.7-3.33,4.6-3.19-.09-6.4,.13-9.58-.05-3.48-.2-4.72,1.29-4.69,4.71,.1,13.77,.05,27.54,.03,41.32,0,1.8,.66,4.39-1.57,4.89-3.03,.68-6.36,1.08-9.34-.33-1.37-.65-.9-2.39-.91-3.69-.03-6.95-.01-13.91-.01-20.86Z"/><path class="cls-2" d="M592.44,753.46c0-8.83,.09-17.66-.04-26.48-.05-3.25,1.04-4.82,4.41-4.4,.66,.08,1.33,0,2,0,5.37,.03,5.4,.04,5.41,5.34,.01,13.38,0,26.75,.02,40.13,.01,5.51,.39,5.83,5.94,5.82,7.46-.01,14.92,.16,22.36-.08,3.94-.13,4.35,1.95,4.23,5.01-.11,2.83,.49,5.65-4.04,5.58-12.11-.2-24.23-.12-36.34-.02-2.94,.02-4.02-1.08-3.98-4.02,.11-8.96,.04-17.92,.04-26.88Z"/><path class="cls-2" d="M645.43,753.22c0-8.68,.15-17.37-.07-26.05-.09-3.62,1.31-4.86,4.67-4.53,1.05,.1,2.13,.1,3.19,.02,3.16-.23,4.14,1.31,4.13,4.34-.08,17.64-.09,35.27,0,52.91,.02,3.21-.93,4.54-4.33,4.48-7.59-.15-7.6,0-7.6-7.52,0-7.88,0-15.77,0-23.65Z"/><path class="cls-2" d="M372.67,718.95c2.83-3.65,5.34-6.89,7.87-10.12,1.08-1.38,2.5-1.43,3.95-.77,2.01,.91,4.26,1.41,5.9,3.03-3.77,6.27-10.69,9.51-17.72,7.86Z"/><path class="cls-2" d="M431.71,656.29c.39-2.79,1.86-4.42,4.55-4.14,2.47,.26,3.73,2.11,3.6,4.52-.14,2.7-1.79,4.19-4.5,3.92-2.51-.25-3.63-1.96-3.65-4.3Z"/><path class="cls-2" d="M491.05,660.71c-2.48-.2-4.13-1.41-4.23-3.93-.11-2.6,1.25-4.53,3.91-4.64,2.69-.12,4.16,1.79,4.23,4.34,.07,2.47-1.55,3.82-3.91,4.24Z"/><path class="cls-2" d="M770.14,652.08c2.74,.21,4.33,1.75,4.37,4.34,.04,2.4-1.44,4.11-3.92,4.21-2.45,.1-4.14-1.38-4.29-3.82-.16-2.57,1.3-4.24,3.85-4.73Z"/><path class="cls-2" d="M550.18,656.32c-.38,2.36-1.42,4.21-3.97,4.3-2.66,.09-4.31-1.41-4.31-4.14,0-2.42,1.32-4.24,3.78-4.37,2.68-.14,3.95,1.79,4.5,4.21Z"/><path class="cls-2" d="M829.51,656.4c-.09,2.36-1.26,4.06-3.76,4.22-2.71,.17-4.32-1.49-4.38-4.1-.05-2.35,1.28-4.25,3.76-4.37,2.62-.13,4.1,1.5,4.38,4.25Z"/><path class="cls-2" d="M709.86,656.39c.24-2.55,1.53-4.31,4.23-4.24,2.5,.06,3.84,1.87,3.88,4.23,.05,2.67-1.59,4.27-4.22,4.24-2.51-.03-3.74-1.69-3.89-4.22Z"/><path class="cls-2" d="M661.46,656.01c.05,2.96-1.31,4.5-3.76,4.61-2.63,.12-4.24-1.38-4.27-4.13-.04-2.52,1.4-4.16,3.78-4.33,2.72-.2,3.97,1.66,4.25,3.86Z"/><path class="cls-2" d="M606.5,656.46c-.23,2.59-1.57,4.17-4.06,4.15-2.66-.02-4.25-1.69-4.11-4.37,.12-2.34,1.43-4.15,4-4.14,2.76,.01,3.88,1.91,4.16,4.36Z"/><path class="cls-2" d="M886.02,656.65c-.21,2.57-1.78,4.1-4.39,3.96-2.43-.13-3.84-1.78-3.77-4.3,.07-2.5,1.6-4.18,3.96-4.19,2.52-.01,4.12,1.62,4.2,4.53Z"/><path class="cls-1" d="M147.68,608.53c-5.7,9.48-3.31,16.8,6.94,21.04,18.67,7.71,38.19,11.2,58.29,11.98,37.5,1.44,73.18-6.11,107.28-21.59,5.47-2.48,10.59-5.61,15.16-9.55,.71-.61,1.4-1.23,2.04-1.91,5.34-5.62,5.22-9.39-.65-14.62,2.4-2.84,5.51-4.81,8.33-7.12,1.3-1.06,2.23-.23,3.19,.44,2.88,2,4.26,6.4,3.3,10.47-1.09,4.62-3.79,8.2-7.35,11.16-9.49,7.9-20.83,12.22-32.15,16.5-17.39,6.56-35.37,10.7-53.73,13.61-23.47,3.71-46.95,5.05-70.59,2.48-11.11-1.21-22.16-2.78-32.65-6.98-3.37-1.35-6.52-3.03-9.26-5.42-6.46-5.62-5.55-15.75,1.78-20.33l.07-.14Z"/><path class="cls-1" d="M147.62,608.67l-.03-.22s.06,.07,.09,.09c0,0-.06,.13-.06,.13Z"/><path class="cls-1" d="M458.21,774.78c-4.11,.05-7.1-2.31-7.68-6.07-.51-3.28,2.05-7.57,5.09-8.75,1.71-.67,2.8,.2,3.85,1.27,2.06,2.09,4.03,4.26,6.13,6.3,2.17,2.09,1.6,3.66-.68,5.08-2.06,1.28-4.24,2.17-6.71,2.19Z"/><path class="cls-1" d="M467.82,736.08c.06,2.99-4.14,8.64-6.54,8.82-1.93,.14-4.14-3.68-4.27-7.37-.13-3.72,2.17-6.3,5.62-6.29,3.04,0,5.13,1.95,5.18,4.85Z"/><path class="cls-1" d="M728.71,763.86c2.9-6.13,5.38-11.37,8.37-17.68,2.98,6.24,5.5,11.55,8.3,17.42-5.63,1.25-10.7,.85-16.67,.26Z"/><path class="cls-1" d="M563.67,763.89c-5.8,.78-10.74,.43-16.3,.36,1.57-6.48,4.97-11.48,7.83-18.13,3.02,6.34,5.54,11.62,8.47,17.77Z"/><path class="cls-1" d="M263.85,746.32c2.97,6.38,5.41,11.61,8.17,17.54-5.74,.87-10.73,.37-16.43,.43,2.19-6.57,5.03-11.82,8.26-17.97Z"/></svg>